<?xml version="1.0" encoding="utf-8" standalone="yes"?>
<!DOCTYPE svg PUBLIC "-//W3C//DTD SVG 1.1//EN" "http://www.w3.org/Graphics/SVG/1.1/DTD/svg11.dtd">
<svg width="606" height="394" viewBox="0 0 606 394" style="fill:none;stroke:none;fill-rule:evenodd;clip-rule:evenodd;stroke-linecap:round;stroke-linejoin:round;stroke-miterlimit:1.5;" version="1.1" xmlns="http://www.w3.org/2000/svg" xmlns:xlink="http://www.w3.org/1999/xlink"><style class="text-font-style fontImports" data-font-family="Roboto">@import url('https://fonts.googleapis.com/css2?family=Roboto:wght@400;700&amp;display=block');</style><g id="items" style="isolation: isolate"><g id="blend" style="mix-blend-mode: normal"><g id="g-root-cr_2_cr-2_qs5sbnn37l6o-fill" data-item-order="-46650" transform="translate(397.99993896484375, 122)"><g id="cr_2_cr-2_qs5sbnn37l6o-fill" stroke="none" fill="#3b5649"><g><path d="M 10 64C 10 93.823377 34.176624 118 64 118C 93.823377 118 118 93.823377 118 64C 118 34.176624 93.823377 10 64 10C 34.176624 10 10 34.176624 10 64"></path></g></g></g><g id="g-root-cr_1_cr-1_hwis2rn37lzd-fill" data-item-order="-46646" transform="translate(73.99996948242188, 122)"><g id="cr_1_cr-1_hwis2rn37lzd-fill" stroke="none" fill="#54502f"><g><path d="M 10 64C 10 93.823377 34.176624 118 64 118C 93.823377 118 118 93.823377 118 64C 118 34.176624 93.823377 10 64 10C 34.176624 10 10 34.176624 10 64"></path></g></g></g><g id="g-root-tx_chooseth_24e5fn3aept-fill" data-item-order="0" transform="translate(26, 38)"><g id="tx_chooseth_24e5fn3aept-fill" stroke="none" fill="#f4f4f4"><g><text style="font-style: normal; font-variant-caps: normal; font-weight: normal; font-width: normal; font-size: 20px; line-height: normal; font-family: Roboto, sans-serif; font-size-adjust: none; font-kerning: auto; font-variant-alternates: normal; font-variant-ligatures: normal; font-variant-numeric: normal; font-variant-east-asian: normal; font-variant-position: normal; font-variant-emoji: normal; font-feature-settings: normal; font-optical-sizing: auto; font-variation-settings: normal; white-space: pre;"><tspan x="14.53" y="34" dominant-baseline="ideographic">Choose the best commit message practice to avoid future </tspan><tspan x="224.53" y="58" dominant-baseline="ideographic">confusion.</tspan></text></g></g></g><g id="g-root-ic_ques_v988mbn37mkm-fill" data-item-order="0" transform="translate(92, 140)"></g><g id="g-root-ic_ligh_1qcl8kjn391c8-fill" data-item-order="0" transform="translate(254, 140)"></g><g id="g-root-ic_uplo_18foyarn38yyv-fill" data-item-order="0" transform="translate(416, 140)"></g><g id="g-root-tx_vaguemes_18koqznn37kzp-fill" data-item-order="0" transform="translate(44, 242)"><g id="tx_vaguemes_18koqznn37kzp-fill" stroke="none" fill="#ffe711"><g><text style="font-style: normal; font-variant-caps: normal; font-weight: bold; font-width: normal; font-size: 20px; line-height: normal; font-family: Roboto, sans-serif; font-size-adjust: none; font-kerning: auto; font-variant-alternates: normal; font-variant-ligatures: normal; font-variant-numeric: normal; font-variant-east-asian: normal; font-variant-position: normal; font-variant-emoji: normal; font-feature-settings: normal; font-optical-sizing: auto; font-variation-settings: normal; white-space: pre;"><tspan x="17.05" y="34" dominant-baseline="ideographic">Vague Messages</tspan></text></g></g></g><g id="g-root-tx_clearmes_5v8o3n37l6r-fill" data-item-order="0" transform="translate(374, 242)"><g id="tx_clearmes_5v8o3n37l6r-fill" stroke="none" fill="#43dd93"><g><text style="font-style: normal; font-variant-caps: normal; font-weight: bold; font-width: normal; font-size: 20px; line-height: normal; font-family: Roboto, sans-serif; font-size-adjust: none; font-kerning: auto; font-variant-alternates: normal; font-variant-ligatures: normal; font-variant-numeric: normal; font-variant-east-asian: normal; font-variant-position: normal; font-variant-emoji: normal; font-feature-settings: normal; font-optical-sizing: auto; font-variation-settings: normal; white-space: pre;"><tspan x="15.43" y="34" dominant-baseline="ideographic">Clear Messages</tspan></text></g></g></g><g id="g-root-tx_leadstoc_1lvis9vn37mkk-fill" data-item-order="0" transform="translate(14, 278)"><g id="tx_leadstoc_1lvis9vn37mkk-fill" stroke="none" fill="#f4f4f4"><g><text style="font-style: normal; font-variant-caps: normal; font-weight: normal; font-width: normal; font-size: 20px; line-height: normal; font-family: Roboto, sans-serif; font-size-adjust: none; font-kerning: auto; font-variant-alternates: normal; font-variant-ligatures: normal; font-variant-numeric: normal; font-variant-east-asian: normal; font-variant-position: normal; font-variant-emoji: normal; font-feature-settings: normal; font-optical-sizing: auto; font-variation-settings: normal; white-space: pre;"><tspan x="16.97" y="34" dominant-baseline="ideographic">Leads to confusion and </tspan><tspan x="70.97" y="58" dominant-baseline="ideographic">inefficiency</tspan></text></g></g></g><g id="g-root-tx_enhances_hwis2rn37lze-fill" data-item-order="0" transform="translate(332, 278)"><g id="tx_enhances_hwis2rn37lze-fill" stroke="none" fill="#f4f4f4"><g><text style="font-style: normal; font-variant-caps: normal; font-weight: normal; font-width: normal; font-size: 20px; line-height: normal; font-family: Roboto, sans-serif; font-size-adjust: none; font-kerning: auto; font-variant-alternates: normal; font-variant-ligatures: normal; font-variant-numeric: normal; font-variant-east-asian: normal; font-variant-position: normal; font-variant-emoji: normal; font-feature-settings: normal; font-optical-sizing: auto; font-variation-settings: normal; white-space: pre;"><tspan x="13.94" y="34" dominant-baseline="ideographic">Enhances documentation </tspan><tspan x="80.94" y="58" dominant-baseline="ideographic">and clarity</tspan></text></g></g></g><g id="g-root-cr_2_cr-2_qs5sbnn37l6o-stroke" data-item-order="-46650" transform="translate(397.99993896484375, 122)"><g id="cr_2_cr-2_qs5sbnn37l6o-stroke" fill="none" stroke-linecap="round" stroke-linejoin="round" stroke-miterlimit="4" stroke="#43dd93" stroke-width="2"><g><path d="M 10 64C 10 93.823377 34.176624 118 64 118C 93.823377 118 118 93.823377 118 64C 118 34.176624 93.823377 10 64 10C 34.176624 10 10 34.176624 10 64"></path></g></g></g><g id="g-root-cr_1_cr-1_hwis2rn37lzd-stroke" data-item-order="-46646" transform="translate(73.99996948242188, 122)"><g id="cr_1_cr-1_hwis2rn37lzd-stroke" fill="none" stroke-linecap="round" stroke-linejoin="round" stroke-miterlimit="4" stroke="#ffe711" stroke-width="2"><g><path d="M 10 64C 10 93.823377 34.176624 118 64 118C 93.823377 118 118 93.823377 118 64C 118 34.176624 93.823377 10 64 10C 34.176624 10 10 34.176624 10 64"></path></g></g></g><g id="g-root-tx_chooseth_24e5fn3aept-stroke" data-item-order="0" transform="translate(26, 38)"></g><g id="g-root-ic_ques_v988mbn37mkm-stroke" data-item-order="0" transform="translate(92, 140)"><g id="ic_ques_v988mbn37mkm-stroke" fill="none" stroke-linecap="round" stroke-linejoin="round" stroke-miterlimit="4" stroke="#ffe711" stroke-width="2"><g><path d="M 80.5 62.5C 80.5 64.156853 79.156853 65.5 77.5 65.5L 44.5 65.5L 32.5 77.5L 32.5 65.5L 14.5 65.5C 12.843145 65.5 11.5 64.156853 11.5 62.5L 11.5 17.5C 11.5 15.843145 12.843145 14.5 14.5 14.5L 77.5 14.5C 79.156853 14.5 80.5 15.843145 80.5 17.5ZM 38.5 32.5C 38.500679 28.005165 41.817543 24.199966 46.270218 23.585781C 50.722897 22.971596 54.946045 25.736753 56.163551 30.063557C 57.381054 34.390362 55.219585 38.952068 51.100002 40.75C 48.912472 41.704716 47.498844 43.865211 47.5 46.251999L 47.5 47.5M 47.5 54.25C 47.914215 54.25 48.25 54.585785 48.25 55C 48.25 55.414215 47.914215 55.75 47.5 55.75C 47.085785 55.75 46.75 55.414215 46.75 55C 46.75 54.585785 47.085785 54.25 47.5 54.25"></path></g></g></g><g id="g-root-ic_ligh_1qcl8kjn391c8-stroke" data-item-order="0" transform="translate(254, 140)"><g id="ic_ligh_1qcl8kjn391c8-stroke" fill="none" stroke-linecap="round" stroke-linejoin="round" stroke-miterlimit="4" stroke="#f4f4f4" stroke-width="2"><g><path d="M 43.7155 60.25L 41.78965 75.448456C 41.6017 76.932404 43.444153 77.732651 44.395 76.57795C 47.01955 73.3909 50.811699 68.769402 54.856899 63.833954M 69.831848 45.546398C 71.379852 43.654751 72.706451 42.033249 73.705299 40.812103C 74.506447 39.832748 73.809097 38.36335 72.543854 38.36335L 69.158348 38.36335M 25.079649 52.911999L 19.49548 52.911999C 18.223511 52.911999 17.52829 51.428951 18.342926 50.452148L 22.779266 45.132549M 35.112999 30.346449C 39.87685 24.636566 44.504349 19.091724 47.564949 15.428576C 48.525852 14.278646 50.384201 15.095304 50.190849 16.581249L 48.589302 28.888599M 40.897453 54.801849L 46.692249 35.308601C 46.978149 34.346951 46.257702 33.3811 45.254501 33.3811L 42.439301 33.3811C 41.771049 33.3811 41.18335 33.823151 40.9981 34.465149L 36.3946 50.412849C 36.289299 50.77795 35.77 50.772701 35.67205 50.405647L 31.4233 34.494099C 31.2481 33.8377 30.6535 33.3811 29.97415 33.3811L 26.994999 33.3811C 25.99645 33.3811 25.276749 34.338249 25.553949 35.297501L 31.17985 54.7687C 31.7362 56.694099 33.498852 58.019501 35.503002 58.019501L 36.584049 58.019501C 38.575451 58.019501 40.329998 56.710602 40.897453 54.801849ZM 55.995251 52.8979C 54.671501 52.8979 53.315948 52.649349 52.157799 52.296249C 51.212952 52.008099 50.137451 52.530552 49.935249 53.497299L 49.494553 55.60405C 49.356548 56.263451 49.675148 56.93755 50.312199 57.156551C 51.677353 57.6259 53.664398 58.020248 55.7164 58.020248C 62.197296 58.020248 65.500153 54.6562 65.500153 50.398453C 65.500153 47.324951 63.797348 44.9491 59.738503 43.285149C 56.776901 42.0355 55.727348 41.490551 55.727348 40.328049C 55.727348 39.259899 56.758598 38.467899 58.703651 38.467899C 59.83075 38.467899 60.802898 38.636799 61.608551 38.862099C 62.52655 39.118752 63.545498 38.638149 63.765404 37.710701L 64.243744 35.694248C 64.408752 34.998253 64.061646 34.273598 63.381096 34.053402C 62.162048 33.658901 60.618248 33.381851 58.743996 33.381851C 52.776852 33.381851 49.470402 36.687851 49.470402 40.843899C 49.470402 43.873749 51.5695 46.227848 55.602547 47.924351C 58.15675 48.945248 59.221001 49.66465 59.221001 50.874397C 59.221001 52.084152 58.112801 52.8979 55.995251 52.8979Z"></path></g></g></g><g id="g-root-ic_uplo_18foyarn38yyv-stroke" data-item-order="0" transform="translate(416, 140)"><g id="ic_uplo_18foyarn38yyv-stroke" fill="none" stroke-linecap="round" stroke-linejoin="round" stroke-miterlimit="4" stroke="#43dd93" stroke-width="2"><g><path d="M 44.5 62.5C 44.500004 72.441132 52.558876 80.5 62.5 80.5C 72.441132 80.5 80.5 72.441132 80.5 62.5C 80.5 52.558876 72.441132 44.500004 62.5 44.500004C 52.558876 44.500004 44.500004 52.558876 44.500004 62.5ZM 62.5 71.5L 62.5 53.5M 62.5 53.5L 55.75 60.25M 62.5 53.5L 69.25 60.25M 73.992996 41.433998C 74.319603 39.978302 74.489571 38.491848 74.5 37C 74.5 22.921001 60.399998 11.5 43 11.5C 25.599998 11.5 11.5 22.921001 11.5 37C 11.659854 44.022251 14.988221 50.595173 20.553999 54.879997L 14.5 68.5L 31.410999 60.699997C 33.725506 61.426327 36.104431 61.928631 38.514999 62.199997"></path></g></g></g><g id="g-root-tx_vaguemes_18koqznn37kzp-stroke" data-item-order="0" transform="translate(44, 242)"></g><g id="g-root-tx_clearmes_5v8o3n37l6r-stroke" data-item-order="0" transform="translate(374, 242)"></g><g id="g-root-tx_leadstoc_1lvis9vn37mkk-stroke" data-item-order="0" transform="translate(14, 278)"></g><g id="g-root-tx_enhances_hwis2rn37lze-stroke" data-item-order="0" transform="translate(332, 278)"></g></g></g><path id="wzk1okjpbcqvc" d="M65.283 12.757a.35.35 0 0 0 .584.157l5.203-5.141-6.183 3.523.396 1.461zm-2.216-11.7a.35.35 0 0 0-.522.305v3.111l3.276-1.868-2.754-1.548zm3.728 2.105l-4.25 2.421v2.445l6.391-3.644-2.141-1.222zm4.708 3.303a.35.35 0 0 0 0-.609l-1.592-.9-7.365 4.199v1.782a.35.35 0 0 0 .523.305l8.435-4.777z M44.542 2.513c0-.433.355-.783.792-.783s.792.35.792.783-.355.783-.792.783-.792-.35-.792-.783zm59.171 0c0-.433.355-.783.792-.783s.792.35.792.783-.355.783-.792.783-.792-.35-.792-.783zm-85.951 7.636h-1.27v-.487c-.276.201-.864.609-1.881.609-1.202 0-2.274-.794-2.137-2.078.118-1.106 1.153-1.584 1.848-1.727l2.17-.345c0-.539-.29-.956-1.064-1.006s-1.21.305-1.571 1.017l-1.124-.605c1.218-2.631 5.029-1.764 5.029.414v4.207zm-1.27-2.86c.006.396-.062 1.112-.819 1.59-.587.37-1.841.299-1.903-.395-.049-.555.461-.791.906-.898l1.816-.297zm72.662 2.86h-1.27v-.487c-.276.201-.864.609-1.881.609-1.202 0-2.274-.794-2.137-2.078.118-1.106 1.153-1.584 1.848-1.727l2.17-.345c0-.539-.29-.956-1.064-1.006s-1.21.305-1.571 1.017l-1.124-.605c1.218-2.631 5.029-1.764 5.029.414v4.207zm-1.27-2.86c.006.396-.062 1.112-.82 1.59-.587.37-1.841.299-1.903-.395-.049-.555.461-.791.906-.898l1.816-.297zM99.096 10.149H97.85v-8.45h1.246v4.895l2.68-2.559h1.738l-2.633 2.535 2.715 3.578h-1.556l-2.077-2.707-.867.844v1.863zm6.053-6.114h-1.255v6.113h1.255V4.035zm-59.2 0h-1.255v6.113h1.255V4.035zm5.584 6.113V1.697h1.255v2.695c.361-.346 1-.485 1.47-.485 1.452 0 2.477 1.082 2.457 2.448v3.792h-1.27v-3.68c0-.408-.214-1.339-1.315-1.339-.968 0-1.342.756-1.342 1.339v3.681h-1.255zm-4.76-4.894V4.039h.621a.45.45 0 0 0 .45-.45v-.855h1.251v1.305h1.309v1.215h-1.309v3.109c0 .293.105.664.648.664.365 0 .531-.035.736-.07v1.137s-.361.113-.857.113c-1.398 0-1.777-1.051-1.777-1.788V5.254h-1.071zM36.528 4.039h-1.394l2.191 6.106h1.125l1.234-3.918 1.238 3.918h1.129l2.188-6.106h-1.383l-1.359 3.93-1.256-3.93h-1.124l-1.242 3.957-1.348-3.957zM26.212 7.141c-.02 1.566 1.187 3.129 3.223 3.129 1.566 0 2.383-.918 2.734-1.719L31.172 8c-.315.399-.801 1.094-1.738 1.094-1.145 0-1.825-.781-1.891-1.52h4.625c.074-.284.148-.995-.03-1.559-.336-1.064-1.221-2.102-2.839-2.102s-3.088 1.152-3.088 3.227zm1.363-.75h3.348c-.055-.43-.566-1.301-1.623-1.301a1.79 1.79 0 0 0-1.725 1.301zm-8.758.75c.038 1.758 1.277 3.133 3.145 3.133 1.074 0 1.723-.477 1.961-.672v.547h1.242V1.703h-1.258v2.888c-.414-.36-1.062-.68-1.93-.68-1.91 0-3.198 1.473-3.16 3.23zm1.309-.08c0 1.119.723 1.978 1.836 1.978a1.88 1.88 0 0 0 1.94-1.904c0-1.371-1.011-1.99-1.972-1.99s-1.805.798-1.805 1.916zm76.683-.028C96.771 5.275 95.532 3.9 93.664 3.9c-1.074 0-1.723.477-1.961.672v-.547h-1.242v8.22h1.258V9.583c.414.36 1.063.68 1.93.68 1.91 0 3.198-1.473 3.16-3.23zm-1.309.08c0-1.119-.723-1.978-1.836-1.978a1.88 1.88 0 0 0-1.94 1.904c0 1.371 1.011 1.99 1.972 1.99S95.5 8.231 95.5 7.113zM106.441 10.173V4.036h1.254v.382c.361-.346 1-.485 1.47-.485 1.452 0 2.477 1.082 2.457 2.448v3.792h-1.27V6.492c0-.408-.214-1.339-1.315-1.339-.969 0-1.342.756-1.342 1.339v3.681h-1.254zm-30.383-.021V1.824h1.084l4.215 5.777V1.824h1.32v8.328h-1.094l-4.207-5.796v5.796h-1.319zM5.24 10.149H4V2.377h1.014l2.664 3.597 2.654-3.592h1.03v7.766h-1.256V4.762L7.678 8.068 5.24 4.742v5.407z" transform="translate(480, 370)" fill="#ababab88" stroke="none"></path></svg>