<?xml version="1.0" encoding="utf-8" standalone="yes"?>
<!DOCTYPE svg PUBLIC "-//W3C//DTD SVG 1.1//EN" "http://www.w3.org/Graphics/SVG/1.1/DTD/svg11.dtd">
<svg width="733" height="301" viewBox="0 0 733 301" style="fill:none;stroke:none;fill-rule:evenodd;clip-rule:evenodd;stroke-linecap:round;stroke-linejoin:round;stroke-miterlimit:1.5;" version="1.1" xmlns="http://www.w3.org/2000/svg" xmlns:xlink="http://www.w3.org/1999/xlink"><style class="text-font-style fontImports" data-font-family="Roboto">@import url('https://fonts.googleapis.com/css2?family=Roboto:wght@400;700&amp;display=block');</style><g id="items" style="isolation: isolate"><g id="blend" style="mix-blend-mode: normal"><g id="g-root-sy_2_cu_1cuvpt7vyqebq-fill" data-item-order="-34192" transform="translate(278.66705322265625, 104)"><g id="sy_2_cu_1cuvpt7vyqebq-fill" stroke="none" fill="#43dd93"><g><path d="M 37.6667 28L 155.829 28C 160.458 17.4046 171.03 10 183.332 10C 199.9 10 213.331 23.431 213.331 39.999C 213.331 56.567 199.9 69.998 183.332 69.998C 171.031 69.998 160.459 62.5944 155.83 52L 106.8333 52L 120.667 76L 93 124L 37.6667 124L 23.8333 100L 78.666 100L 92.4994 76L 78.666 52L 50.9993 52L 37.166 76L 10 76L 37.6667 28Z"></path></g></g></g><g id="g-root-sy_1_cu_1cuvpt7vyqebr-fill" data-item-order="-34188" transform="translate(182, 146)"><g id="sy_1_cu_1cuvpt7vyqebr-fill" stroke="none" fill="#4f91fc"><g><path d="M 189.166 34L 175.333 58L 67.9192 58C 63.5318 69.1266 52.6854 77 40 77C 23.4315 77 10 63.5685 10 47C 10 30.4315 23.4315 17 40 17C 51.9111 17 62.2009 23.9416 67.0447 34L 133.833 34L 147.666 10L 175.333 10L 189.166 34Z"></path></g></g></g><g id="g-root-tx_function_18f27orvyqf40-fill" data-item-order="0" transform="translate(98, 26)"><g id="tx_function_18f27orvyqf40-fill" stroke="none" fill="#f4f4f4"><g><text style="font-style: normal; font-variant-caps: normal; font-weight: bold; font-width: normal; font-size: 25px; line-height: normal; font-family: Roboto, sans-serif; font-size-adjust: none; font-kerning: auto; font-variant-alternates: normal; font-variant-ligatures: normal; font-variant-numeric: normal; font-variant-east-asian: normal; font-variant-position: normal; font-variant-emoji: normal; font-feature-settings: normal; font-optical-sizing: auto; font-variation-settings: normal; white-space: pre;"><tspan x="13.39" y="42" dominant-baseline="ideographic">Functional Core, Imperative Shell Pattern</tspan></text></g></g></g><g id="g-root-ic_mana_924gh7vyqfbe-fill" data-item-order="0" transform="translate(433.9990234375, 116)"></g><g id="g-root-tx_imperati_1ltn3hnvyrrbg-fill" data-item-order="0" transform="translate(494, 122)"><g id="tx_imperati_1ltn3hnvyrrbg-fill" stroke="none" fill="#43dd93"><g><text style="font-style: normal; font-variant-caps: normal; font-weight: bold; font-width: normal; font-size: 20px; line-height: normal; font-family: Roboto, sans-serif; font-size-adjust: none; font-kerning: auto; font-variant-alternates: normal; font-variant-ligatures: normal; font-variant-numeric: normal; font-variant-east-asian: normal; font-variant-position: normal; font-variant-emoji: normal; font-feature-settings: normal; font-optical-sizing: auto; font-variation-settings: normal; white-space: pre;"><tspan x="12" y="34" dominant-baseline="ideographic">Imperative Shell</tspan></text></g></g></g><g id="g-root-tx_function_142d2zvvyrtom-fill" data-item-order="0" transform="translate(14, 170)"><g id="tx_function_142d2zvvyrtom-fill" stroke="none" fill="#4f91fc"><g><text style="font-style: normal; font-variant-caps: normal; font-weight: bold; font-width: normal; font-size: 20px; line-height: normal; font-family: Roboto, sans-serif; font-size-adjust: none; font-kerning: auto; font-variant-alternates: normal; font-variant-ligatures: normal; font-variant-numeric: normal; font-variant-east-asian: normal; font-variant-position: normal; font-variant-emoji: normal; font-feature-settings: normal; font-optical-sizing: auto; font-variation-settings: normal; white-space: pre;"><tspan x="22" y="34" dominant-baseline="ideographic">Functional Core</tspan></text></g></g></g><g id="g-root-ic_cog_m8l65nvyqebt-fill" data-item-order="0" transform="translate(194, 164)"></g><g id="g-root-tx_managesi_8z031nvyrsar-fill" data-item-order="0" transform="translate(494.3603515625, 158.50003051757812)"><g id="tx_managesi_8z031nvyrsar-fill" stroke="none" fill="#dffff0"><g><text style="font-style: normal; font-variant-caps: normal; font-weight: normal; font-width: normal; font-size: 15px; line-height: normal; font-family: Roboto, sans-serif; font-size-adjust: none; font-kerning: auto; font-variant-alternates: normal; font-variant-ligatures: normal; font-variant-numeric: normal; font-variant-east-asian: normal; font-variant-position: normal; font-variant-emoji: normal; font-feature-settings: normal; font-optical-sizing: auto; font-variation-settings: normal; white-space: pre;"><tspan x="12" y="31" dominant-baseline="ideographic">Manages IO and side effects</tspan></text></g></g></g><g id="g-root-tx_purefunc_1hdtld7vyrs3p-fill" data-item-order="0" transform="translate(38.3603515625, 206.50003051757812)"><g id="tx_purefunc_1hdtld7vyrs3p-fill" stroke="none" fill="#ebf2ff"><g><text style="font-style: normal; font-variant-caps: normal; font-weight: normal; font-width: normal; font-size: 15px; line-height: normal; font-family: Roboto, sans-serif; font-size-adjust: none; font-kerning: auto; font-variant-alternates: normal; font-variant-ligatures: normal; font-variant-numeric: normal; font-variant-east-asian: normal; font-variant-position: normal; font-variant-emoji: normal; font-feature-settings: normal; font-optical-sizing: auto; font-variation-settings: normal; white-space: pre;"><tspan x="14" y="28" dominant-baseline="ideographic">Pure functions and </tspan><tspan x="28" y="46" dominant-baseline="ideographic">immutable types</tspan></text></g></g></g><g id="g-root-sy_2_cu_1cuvpt7vyqebq-stroke" data-item-order="-34192" transform="translate(278.66705322265625, 104)"><g id="sy_2_cu_1cuvpt7vyqebq-stroke" fill="none" stroke-linecap="round" stroke-linejoin="round" stroke-miterlimit="4" stroke="#2c2c2c" stroke-width="2"><g><path d="M 37.6667 28L 155.8289 28C 160.458 17.4046 171.0303 10 183.332 10C 199.9 10 213.3311 23.431 213.3311 39.999C 213.3311 56.567 199.9 69.998 183.332 69.998C 171.031 69.998 160.4593 62.5944 155.8298 52L 106.8333 52L 120.6667 76L 93 124L 37.6667 124L 23.8333 100L 78.666 100L 92.4994 76L 78.666 52L 50.9993 52L 37.166 76L 10 76L 37.6667 28Z"></path></g></g></g><g id="g-root-sy_1_cu_1cuvpt7vyqebr-stroke" data-item-order="-34188" transform="translate(182, 146)"><g id="sy_1_cu_1cuvpt7vyqebr-stroke" fill="none" stroke-linecap="round" stroke-linejoin="round" stroke-miterlimit="4" stroke="#2c2c2c" stroke-width="2"><g><path d="M 189.1664 34L 175.3331 58L 67.9192 58C 63.5318 69.1266 52.6854 77 40 77C 23.4315 77 10 63.5685 10 47C 10 30.4315 23.4315 17 40 17C 51.9111 17 62.2009 23.9416 67.0447 34L 133.8331 34L 147.6664 10L 175.3331 10L 189.1664 34Z"></path></g></g></g><g id="g-root-tx_function_18f27orvyqf40-stroke" data-item-order="0" transform="translate(98, 26)"></g><g id="g-root-ic_mana_924gh7vyqfbe-stroke" data-item-order="0" transform="translate(433.9990234375, 116)"><g id="ic_mana_924gh7vyqfbe-stroke" fill="none" stroke-linecap="round" stroke-linejoin="round" stroke-miterlimit="4" stroke="#2c2c2c" stroke-width="2"><g><path d="M 25 42.25C 25 43.906857 26.343145 45.25 28 45.25C 29.656855 45.25 31 43.906857 31 42.25C 31 40.593143 29.656855 39.25 28 39.25C 26.343145 39.25 25 40.593143 25 42.25M 28 45.25C 26.790533 45.244923 25.702404 44.514061 25.24025 43.396362C 24.778091 42.278667 25.032309 40.99276 25.885 40.135002L 40.135002 25.885C 41.325279 24.865669 43.099583 24.934204 44.207687 26.042311C 45.315796 27.150417 45.384331 28.924721 44.364998 30.115L 30.115 44.364998C 29.554974 44.928383 28.794365 45.246651 28 45.25ZM 25 13.75C 25 15.406855 26.343145 16.75 28 16.75C 29.656855 16.75 31 15.406855 31 13.75C 31 12.093145 29.656855 10.75 28 10.75C 26.343145 10.75 25 12.093145 25 13.75M 25 28C 25 29.656855 26.343145 31 28 31C 29.656855 31 31 29.656855 31 28C 31 26.343145 29.656855 25 28 25C 26.343145 25 25 26.343145 25 28M 28 10.75C 29.209467 10.755078 30.297596 11.485939 30.75975 12.603637C 31.221909 13.721334 30.967691 15.00724 30.115 15.865L 15.865 30.115C 14.694887 31.27817 12.805112 31.27817 11.635 30.115C 10.471829 28.944887 10.471829 27.055113 11.635 25.885L 25.885 11.635C 26.445026 11.071618 27.205635 10.753349 28 10.75ZM 35.125 17.875C 36.334465 17.880077 37.422596 18.610939 37.88475 19.728636C 38.346909 20.846334 38.092693 22.13224 37.239998 22.99L 22.99 37.239998C 21.799719 38.259331 20.025417 38.190796 18.917311 37.082687C 17.809202 35.974583 17.740669 34.200279 18.76 33.010002L 33.010002 18.76C 33.570026 18.196619 34.330635 17.878349 35.125 17.875Z"></path></g></g></g><g id="g-root-tx_imperati_1ltn3hnvyrrbg-stroke" data-item-order="0" transform="translate(494, 122)"></g><g id="g-root-tx_function_142d2zvvyrtom-stroke" data-item-order="0" transform="translate(14, 170)"></g><g id="g-root-ic_cog_m8l65nvyqebt-stroke" data-item-order="0" transform="translate(194, 164)"><g id="ic_cog_m8l65nvyqebt-stroke" fill="none" stroke-linecap="round" stroke-linejoin="round" stroke-miterlimit="4" stroke="#2c2c2c" stroke-width="2"><g><path d="M 25.1245 35.772999L 25.1245 23.123499C 25.1245 21.852692 26.154694 20.8225 27.425499 20.8225L 32.024498 20.8225M 22.825001 27.7225L 28.574501 27.7225M 25.771 13.3375C 26.339897 13.969049 27.15 14.329626 28 14.329626C 28.85 14.329626 29.660103 13.969049 30.229 13.3375L 31.6705 11.7415C 32.520176 10.792525 33.87648 10.483569 35.053337 10.970917C 36.230194 11.458264 36.970993 12.635651 36.901001 13.9075L 36.7915 16.0555C 36.747925 16.903542 37.065781 17.730326 37.666225 18.330772C 38.266674 18.931221 39.09346 19.249077 39.941502 19.2055L 42.099998 19.098999C 43.371849 19.029009 44.549236 19.769806 45.036583 20.946663C 45.523933 22.12352 45.214973 23.479826 44.265999 24.3295L 42.670002 25.771C 42.038452 26.339897 41.677876 27.15 41.677876 28C 41.677876 28.85 42.038452 29.660103 42.670002 30.229L 44.265999 31.6705C 45.214973 32.520176 45.523933 33.87648 45.036583 35.053337C 44.549236 36.230194 43.371849 36.970993 42.099998 36.901001L 39.952 36.7915C 39.103958 36.747925 38.277176 37.065781 37.676727 37.666225C 37.076279 38.266674 36.758423 39.09346 36.802002 39.941502L 36.911499 42.0895C 36.981491 43.361351 36.240692 44.538734 35.063835 45.026081C 33.886978 45.513432 32.530674 45.204475 31.681 44.255501L 30.2395 42.6595C 29.670603 42.02795 28.8605 41.667374 28.0105 41.667374C 27.1605 41.667374 26.350397 42.02795 25.7815 42.6595L 24.34 44.255501C 23.493265 45.211338 22.134268 45.526432 20.9533 45.040726C 19.772333 44.555027 19.02825 43.374985 19.098999 42.099998L 19.2085 39.952C 19.252077 39.103958 18.934219 38.277176 18.333773 37.676727C 17.733326 37.076279 16.906542 36.758423 16.0585 36.802002L 13.910501 36.911499C 12.638651 36.981491 11.461265 36.240692 10.973917 35.063835C 10.486569 33.886978 10.795525 32.530674 11.7445 31.681L 13.3405 30.2395C 13.97205 29.670603 14.332626 28.8605 14.332626 28.0105C 14.332626 27.1605 13.97205 26.350397 13.3405 25.7815L 11.7415 24.3295C 10.792525 23.479826 10.483569 22.12352 10.970917 20.946663C 11.458264 19.769806 12.635651 19.029009 13.9075 19.098999L 16.0555 19.2085C 16.903542 19.252077 17.730326 18.934219 18.330772 18.333773C 18.931221 17.733326 19.249077 16.906542 19.2055 16.0585L 19.098999 13.9075C 19.029009 12.635651 19.769806 11.458264 20.946663 10.970917C 22.12352 10.483569 23.479826 10.792525 24.3295 11.7415Z"></path></g></g></g><g id="g-root-tx_managesi_8z031nvyrsar-stroke" data-item-order="0" transform="translate(494.3603515625, 158.50003051757812)"></g><g id="g-root-tx_purefunc_1hdtld7vyrs3p-stroke" data-item-order="0" transform="translate(38.3603515625, 206.50003051757812)"></g></g></g><path id="w141qirfx2zz0o" d="M65.283 12.757a.35.35 0 0 0 .584.157l5.203-5.141-6.183 3.523.396 1.461zm-2.216-11.7a.35.35 0 0 0-.522.305v3.111l3.276-1.868-2.754-1.548zm3.728 2.105l-4.25 2.421v2.445l6.391-3.644-2.141-1.222zm4.708 3.303a.35.35 0 0 0 0-.609l-1.592-.9-7.365 4.199v1.782a.35.35 0 0 0 .523.305l8.435-4.777z M44.542 2.513c0-.433.355-.783.792-.783s.792.35.792.783-.355.783-.792.783-.792-.35-.792-.783zm59.171 0c0-.433.355-.783.792-.783s.792.35.792.783-.355.783-.792.783-.792-.35-.792-.783zm-85.951 7.636h-1.27v-.487c-.276.201-.864.609-1.881.609-1.202 0-2.274-.794-2.137-2.078.118-1.106 1.153-1.584 1.848-1.727l2.17-.345c0-.539-.29-.956-1.064-1.006s-1.21.305-1.571 1.017l-1.124-.605c1.218-2.631 5.029-1.764 5.029.414v4.207zm-1.27-2.86c.006.396-.062 1.112-.819 1.59-.587.37-1.841.299-1.903-.395-.049-.555.461-.791.906-.898l1.816-.297zm72.662 2.86h-1.27v-.487c-.276.201-.864.609-1.881.609-1.202 0-2.274-.794-2.137-2.078.118-1.106 1.153-1.584 1.848-1.727l2.17-.345c0-.539-.29-.956-1.064-1.006s-1.21.305-1.571 1.017l-1.124-.605c1.218-2.631 5.029-1.764 5.029.414v4.207zm-1.27-2.86c.006.396-.062 1.112-.82 1.59-.587.37-1.841.299-1.903-.395-.049-.555.461-.791.906-.898l1.816-.297zM99.096 10.149H97.85v-8.45h1.246v4.895l2.68-2.559h1.738l-2.633 2.535 2.715 3.578h-1.556l-2.077-2.707-.867.844v1.863zm6.053-6.114h-1.255v6.113h1.255V4.035zm-59.2 0h-1.255v6.113h1.255V4.035zm5.584 6.113V1.697h1.255v2.695c.361-.346 1-.485 1.47-.485 1.452 0 2.477 1.082 2.457 2.448v3.792h-1.27v-3.68c0-.408-.214-1.339-1.315-1.339-.968 0-1.342.756-1.342 1.339v3.681h-1.255zm-4.76-4.894V4.039h.621a.45.45 0 0 0 .45-.45v-.855h1.251v1.305h1.309v1.215h-1.309v3.109c0 .293.105.664.648.664.365 0 .531-.035.736-.07v1.137s-.361.113-.857.113c-1.398 0-1.777-1.051-1.777-1.788V5.254h-1.071zM36.528 4.039h-1.394l2.191 6.106h1.125l1.234-3.918 1.238 3.918h1.129l2.188-6.106h-1.383l-1.359 3.93-1.256-3.93h-1.124l-1.242 3.957-1.348-3.957zM26.212 7.141c-.02 1.566 1.187 3.129 3.223 3.129 1.566 0 2.383-.918 2.734-1.719L31.172 8c-.315.399-.801 1.094-1.738 1.094-1.145 0-1.825-.781-1.891-1.52h4.625c.074-.284.148-.995-.03-1.559-.336-1.064-1.221-2.102-2.839-2.102s-3.088 1.152-3.088 3.227zm1.363-.75h3.348c-.055-.43-.566-1.301-1.623-1.301a1.79 1.79 0 0 0-1.725 1.301zm-8.758.75c.038 1.758 1.277 3.133 3.145 3.133 1.074 0 1.723-.477 1.961-.672v.547h1.242V1.703h-1.258v2.888c-.414-.36-1.062-.68-1.93-.68-1.91 0-3.198 1.473-3.16 3.23zm1.309-.08c0 1.119.723 1.978 1.836 1.978a1.88 1.88 0 0 0 1.94-1.904c0-1.371-1.011-1.99-1.972-1.99s-1.805.798-1.805 1.916zm76.683-.028C96.771 5.275 95.532 3.9 93.664 3.9c-1.074 0-1.723.477-1.961.672v-.547h-1.242v8.22h1.258V9.583c.414.36 1.063.68 1.93.68 1.91 0 3.198-1.473 3.16-3.23zm-1.309.08c0-1.119-.723-1.978-1.836-1.978a1.88 1.88 0 0 0-1.94 1.904c0 1.371 1.011 1.99 1.972 1.99S95.5 8.231 95.5 7.113zM106.441 10.173V4.036h1.254v.382c.361-.346 1-.485 1.47-.485 1.452 0 2.477 1.082 2.457 2.448v3.792h-1.27V6.492c0-.408-.214-1.339-1.315-1.339-.969 0-1.342.756-1.342 1.339v3.681h-1.254zm-30.383-.021V1.824h1.084l4.215 5.777V1.824h1.32v8.328h-1.094l-4.207-5.796v5.796h-1.319zM5.24 10.149H4V2.377h1.014l2.664 3.597 2.654-3.592h1.03v7.766h-1.256V4.762L7.678 8.068 5.24 4.742v5.407z" transform="translate(596.3603515625, 266.5000305175781)" fill="#ababab88" stroke="none"></path></svg>