<?xml version="1.0" encoding="utf-8" standalone="yes"?>
<!DOCTYPE svg PUBLIC "-//W3C//DTD SVG 1.1//EN" "http://www.w3.org/Graphics/SVG/1.1/DTD/svg11.dtd">
<svg width="1068" height="865" viewBox="0 0 1068 865" style="fill:none;stroke:none;fill-rule:evenodd;clip-rule:evenodd;stroke-linecap:round;stroke-linejoin:round;stroke-miterlimit:1.5;" version="1.1" xmlns="http://www.w3.org/2000/svg" xmlns:xlink="http://www.w3.org/1999/xlink"><style class="text-font-style fontImports" data-font-family="Arial"></style><g id="items" style="isolation: isolate"><g id="blend" style="mix-blend-mode: normal"><g id="g-root-cp_5_g-5_1d2d5b0x31e6i-fill" data-item-order="-795590" transform="translate(242.06201171875, 458.2309875488281)"><g id="cp_5_g-5_1d2d5b0x31e6i-fill" stroke="none" fill="#426397"><g><path d="M 292.376 196.196L 472.877 10L 484.233 21.7143C 506.715 44.9066 537.637 57.9972 569.938 57.9972L 569.944 57.9972C 563.621 57.9972 557.568 60.5596 553.168 65.0993L 361.305 263.016C 309.885 316.058 239.164 345.997 165.29 345.997L 10 345.997L 10 345.927L 40.9377 297.997L 10 250.067L 10 249.997L 165.29 249.997C 213.187 249.997 259.038 230.586 292.376 196.196Z"></path></g></g></g><g id="g-root-cp_4_g-4_1d2d5b0x31e6k-fill" data-item-order="-795586" transform="translate(242.06201171875, 458.2109680175781)"><g id="cp_4_g-4_1d2d5b0x31e6k-fill" stroke="none" fill="#426397"><g><path d="M 384.737 58.0154C 344.692 58.0154 306.356 41.7881 278.481 13.0378L 275.535 10L 197.791 90.2073C 187.996 100.3119 174.525 106.0154 160.452 106.0154L 10 106.0154L 10 106.0852L 40.9377 154.015L 10 201.946L 10 202.015L 160.452 202.015C 200.505 202.015 238.847 185.782 266.723 157.023L 347.368 73.8235C 357.162 63.7189 370.634 58.0154 384.706 58.0154L 384.737 58.0154Z"></path></g></g></g><g id="g-root-cp_3_g-3_18mjn6kx31eyu-fill" data-item-order="-795582" transform="translate(242, 410.2269592285156)"><g id="cp_3_g-3_18mjn6kx31eyu-fill" stroke="none" fill="#426397"><g><path d="M 10 105.9997L 41 58L 10 10.0003L 229.074 10L 275.598 57.9846L 229.057 106L 10 105.9997Z"></path></g></g></g><g id="g-root-cp_2_g-2_18mjn6kx31eyw-fill" data-item-order="-795578" transform="translate(242.0059814453125, 266.2269592285156)"><g id="cp_2_g-2_18mjn6kx31eyw-fill" stroke="none" fill="#426397"><g><path d="M 10 105.9926L 40.9937 58L 10 10.0074L 10 10L 160.517 10C 200.562 10 238.898 26.2274 266.773 54.9777L 347.46 138.197C 357.254 148.298 370.723 154 384.793 154L 426.4 154L 472.933 202.003L 426.404 250L 384.793 250C 344.748 250 306.412 233.773 278.537 205.022L 197.85 121.803C 188.056 111.702 174.587 106 160.517 106L 10 106L 10 105.9926Z"></path></g></g></g><g id="g-root-cp_1_g-1_18mjn6kx31eyy-fill" data-item-order="-795574" transform="translate(242.062255859375, 122.22698974609375)"><g id="cp_1_g-1_18mjn6kx31eyy-fill" stroke="none" fill="#426397"><g><path d="M 10 105.9302L 40.9377 58L 10 10.0698L 10 10L 165.288 10C 239.164 10 309.886 39.9398 361.305 92.9832L 553.162 290.898C 557.563 295.438 563.615 298 569.938 298L 759.938 298L 790.938 346L 759.938 394L 569.938 394C 537.637 394 506.715 380.909 484.233 357.717L 292.376 159.802C 259.038 125.412 213.186 106 165.288 106L 10 106L 10 105.9302Z"></path></g></g></g><g id="g-root-tx_standard_mb2sykx32sy5-fill" data-item-order="0" transform="translate(290, 722.2269287109375)"><g id="tx_standard_mb2sykx32sy5-fill" stroke="none" fill="#b7b7b7"><g><text style="font-style: normal; font-variant-caps: normal; font-weight: bold; font-width: normal; font-size: 20px; line-height: normal; font-family: Arial, Helvetica, sans-serif; font-size-adjust: none; font-kerning: auto; font-variant-alternates: normal; font-variant-ligatures: normal; font-variant-numeric: normal; font-variant-east-asian: normal; font-variant-position: normal; font-variant-emoji: normal; font-feature-settings: normal; font-optical-sizing: auto; font-variation-settings: normal; white-space: pre;"><tspan x="12" y="33" dominant-baseline="ideographic">Standard </tspan><tspan x="12" y="57" dominant-baseline="ideographic">Library</tspan></text></g></g></g><g id="g-root-tx_golangen_dcbfa4x32tc1-fill" data-item-order="0" transform="translate(98, 278.2270202636719)"><g id="tx_golangen_dcbfa4x32tc1-fill" stroke="none" fill="#f4f4f4"><g><text style="font-style: normal; font-variant-caps: normal; font-weight: normal; font-width: normal; font-size: 15px; line-height: normal; font-family: Arial, Helvetica, sans-serif; font-size-adjust: none; font-kerning: auto; font-variant-alternates: normal; font-variant-ligatures: normal; font-variant-numeric: normal; font-variant-east-asian: normal; font-variant-position: normal; font-variant-emoji: normal; font-feature-settings: normal; font-optical-sizing: auto; font-variation-settings: normal; white-space: pre;"><tspan x="12" y="27" dominant-baseline="ideographic">Golang enhances </tspan><tspan x="12" y="45" dominant-baseline="ideographic">efficiency in </tspan><tspan x="12" y="63" dominant-baseline="ideographic">application </tspan><tspan x="12" y="81" dominant-baseline="ideographic">development.</tspan></text></g></g></g><g id="g-root-tx_2_qnrxngx32rr4-fill" data-item-order="0" transform="translate(44, 296.0000305175781)"><g id="tx_2_qnrxngx32rr4-fill" stroke="none" fill="#f4f4f4"><g><text style="font-style: normal; font-variant-caps: normal; font-weight: bold; font-width: normal; font-size: 30px; line-height: normal; font-family: Arial, Helvetica, sans-serif; font-size-adjust: none; font-kerning: auto; font-variant-alternates: normal; font-variant-ligatures: normal; font-variant-numeric: normal; font-variant-east-asian: normal; font-variant-position: normal; font-variant-emoji: normal; font-feature-settings: normal; font-optical-sizing: auto; font-variation-settings: normal; white-space: pre;"><tspan x="13.66" y="44" dominant-baseline="ideographic">2</tspan></text></g></g></g><g id="g-root-tx_efficien_1cxdcm4x32sy2-fill" data-item-order="0" transform="translate(290, 302.2270202636719)"><g id="tx_efficien_1cxdcm4x32sy2-fill" stroke="none" fill="#b7b7b7"><g><text style="font-style: normal; font-variant-caps: normal; font-weight: bold; font-width: normal; font-size: 20px; line-height: normal; font-family: Arial, Helvetica, sans-serif; font-size-adjust: none; font-kerning: auto; font-variant-alternates: normal; font-variant-ligatures: normal; font-variant-numeric: normal; font-variant-east-asian: normal; font-variant-position: normal; font-variant-emoji: normal; font-feature-settings: normal; font-optical-sizing: auto; font-variation-settings: normal; white-space: pre;"><tspan x="12" y="33" dominant-baseline="ideographic">Efficiency</tspan></text></g></g></g><g id="g-root-tx_golangsu_1lr4xlox32t4z-fill" data-item-order="0" transform="translate(86, 422.2269592285156)"><g id="tx_golangsu_1lr4xlox32t4z-fill" stroke="none" fill="#f4f4f4"><g><text style="font-style: normal; font-variant-caps: normal; font-weight: normal; font-width: normal; font-size: 15px; line-height: normal; font-family: Arial, Helvetica, sans-serif; font-size-adjust: none; font-kerning: auto; font-variant-alternates: normal; font-variant-ligatures: normal; font-variant-numeric: normal; font-variant-east-asian: normal; font-variant-position: normal; font-variant-emoji: normal; font-feature-settings: normal; font-optical-sizing: auto; font-variation-settings: normal; white-space: pre;"><tspan x="12" y="27" dominant-baseline="ideographic">Golang supports </tspan><tspan x="12" y="45" dominant-baseline="ideographic">scalable application </tspan><tspan x="12" y="63" dominant-baseline="ideographic">architecture </tspan><tspan x="12" y="81" dominant-baseline="ideographic">effectively.</tspan></text></g></g></g><g id="g-root-tx_golangsd_4pf28sx31de6-fill" data-item-order="0" transform="translate(86, 140.22702026367188)"><g id="tx_golangsd_4pf28sx31de6-fill" stroke="none" fill="#f4f4f4"><g><text style="font-style: normal; font-variant-caps: normal; font-weight: normal; font-width: normal; font-size: 15px; line-height: normal; font-family: Arial, Helvetica, sans-serif; font-size-adjust: none; font-kerning: auto; font-variant-alternates: normal; font-variant-ligatures: normal; font-variant-numeric: normal; font-variant-east-asian: normal; font-variant-position: normal; font-variant-emoji: normal; font-feature-settings: normal; font-optical-sizing: auto; font-variation-settings: normal; white-space: pre;"><tspan x="12" y="30" dominant-baseline="ideographic">Golang's design </tspan><tspan x="12" y="48" dominant-baseline="ideographic">prioritizes simplicity </tspan><tspan x="12" y="66" dominant-baseline="ideographic">in programming.</tspan></text></g></g></g><g id="g-root-tx_3_1hdzwx32rr6-fill" data-item-order="0" transform="translate(44, 440.0000305175781)"><g id="tx_3_1hdzwx32rr6-fill" stroke="none" fill="#f4f4f4"><g><text style="font-style: normal; font-variant-caps: normal; font-weight: bold; font-width: normal; font-size: 30px; line-height: normal; font-family: Arial, Helvetica, sans-serif; font-size-adjust: none; font-kerning: auto; font-variant-alternates: normal; font-variant-ligatures: normal; font-variant-numeric: normal; font-variant-east-asian: normal; font-variant-position: normal; font-variant-emoji: normal; font-feature-settings: normal; font-optical-sizing: auto; font-variation-settings: normal; white-space: pre;"><tspan x="13.66" y="44" dominant-baseline="ideographic">3</tspan></text></g></g></g><g id="g-root-tx_scalabil_zlwu8sx32uiz-fill" data-item-order="0" transform="translate(290, 446.2269592285156)"><g id="tx_scalabil_zlwu8sx32uiz-fill" stroke="none" fill="#b7b7b7"><g><text style="font-style: normal; font-variant-caps: normal; font-weight: bold; font-width: normal; font-size: 20px; line-height: normal; font-family: Arial, Helvetica, sans-serif; font-size-adjust: none; font-kerning: auto; font-variant-alternates: normal; font-variant-ligatures: normal; font-variant-numeric: normal; font-variant-east-asian: normal; font-variant-position: normal; font-variant-emoji: normal; font-feature-settings: normal; font-optical-sizing: auto; font-variation-settings: normal; white-space: pre;"><tspan x="12" y="33" dominant-baseline="ideographic">Scalability</tspan></text></g></g></g><g id="g-root-tx_golangsi_2qc64x32txc-fill" data-item-order="0" transform="translate(830, 434.2269592285156)"><g id="tx_golangsi_2qc64x32txc-fill" stroke="none" fill="#f4f4f4"><g><text style="font-style: normal; font-variant-caps: normal; font-weight: bold; font-width: normal; font-size: 20px; line-height: normal; font-family: Arial, Helvetica, sans-serif; font-size-adjust: none; font-kerning: auto; font-variant-alternates: normal; font-variant-ligatures: normal; font-variant-numeric: normal; font-variant-east-asian: normal; font-variant-position: normal; font-variant-emoji: normal; font-feature-settings: normal; font-optical-sizing: auto; font-variation-settings: normal; white-space: pre;"><tspan x="19" y="33" dominant-baseline="ideographic">Golang's </tspan><tspan x="39" y="57" dominant-baseline="ideographic">Impact</tspan></text></g></g></g><g id="g-root-ic_gola_1lz93q4x31fk7-fill" data-item-order="0" transform="translate(939, 434.2269592285156)"></g><g id="g-root-tx_1_i093j0x31ez1-fill" data-item-order="0" transform="translate(44, 152)"><g id="tx_1_i093j0x31ez1-fill" stroke="none" fill="#f4f4f4"><g><text style="font-style: normal; font-variant-caps: normal; font-weight: bold; font-width: normal; font-size: 30px; line-height: normal; font-family: Arial, Helvetica, sans-serif; font-size-adjust: none; font-kerning: auto; font-variant-alternates: normal; font-variant-ligatures: normal; font-variant-numeric: normal; font-variant-east-asian: normal; font-variant-position: normal; font-variant-emoji: normal; font-feature-settings: normal; font-optical-sizing: auto; font-variation-settings: normal; white-space: pre;"><tspan x="13.66" y="44" dominant-baseline="ideographic">1</tspan></text></g></g></g><g id="g-root-tx_building_146q524x31fr8-fill" data-item-order="0" transform="translate(278, 38)"><g id="tx_building_146q524x31fr8-fill" stroke="none" fill="#f4f4f4"><g><text style="font-style: normal; font-variant-caps: normal; font-weight: bold; font-width: normal; font-size: 25px; line-height: normal; font-family: Arial, Helvetica, sans-serif; font-size-adjust: none; font-kerning: auto; font-variant-alternates: normal; font-variant-ligatures: normal; font-variant-numeric: normal; font-variant-east-asian: normal; font-variant-position: normal; font-variant-emoji: normal; font-feature-settings: normal; font-optical-sizing: auto; font-variation-settings: normal; white-space: pre;"><tspan x="15.35" y="42" dominant-baseline="ideographic">Building High-Performance Applications</tspan></text></g></g></g><g id="g-root-tx_golangex_v4udy4x32t51-fill" data-item-order="0" transform="translate(110, 566.2269287109375)"><g id="tx_golangex_v4udy4x32t51-fill" stroke="none" fill="#f4f4f4"><g><text style="font-style: normal; font-variant-caps: normal; font-weight: normal; font-width: normal; font-size: 15px; line-height: normal; font-family: Arial, Helvetica, sans-serif; font-size-adjust: none; font-kerning: auto; font-variant-alternates: normal; font-variant-ligatures: normal; font-variant-numeric: normal; font-variant-east-asian: normal; font-variant-position: normal; font-variant-emoji: normal; font-feature-settings: normal; font-optical-sizing: auto; font-variation-settings: normal; white-space: pre;"><tspan x="12" y="27" dominant-baseline="ideographic">Golang excels in </tspan><tspan x="12" y="45" dominant-baseline="ideographic">managing </tspan><tspan x="12" y="63" dominant-baseline="ideographic">concurrent tasks </tspan><tspan x="12" y="81" dominant-baseline="ideographic">seamlessly.</tspan></text></g></g></g><g id="g-root-tx_4_18fof8cx32upw-fill" data-item-order="0" transform="translate(44, 584)"><g id="tx_4_18fof8cx32upw-fill" stroke="none" fill="#f4f4f4"><g><text style="font-style: normal; font-variant-caps: normal; font-weight: bold; font-width: normal; font-size: 30px; line-height: normal; font-family: Arial, Helvetica, sans-serif; font-size-adjust: none; font-kerning: auto; font-variant-alternates: normal; font-variant-ligatures: normal; font-variant-numeric: normal; font-variant-east-asian: normal; font-variant-position: normal; font-variant-emoji: normal; font-feature-settings: normal; font-optical-sizing: auto; font-variation-settings: normal; white-space: pre;"><tspan x="13.66" y="44" dominant-baseline="ideographic">4</tspan></text></g></g></g><g id="g-root-tx_concurre_v6pt7gx32s5g-fill" data-item-order="0" transform="translate(290, 590.2269287109375)"><g id="tx_concurre_v6pt7gx32s5g-fill" stroke="none" fill="#b7b7b7"><g><text style="font-style: normal; font-variant-caps: normal; font-weight: bold; font-width: normal; font-size: 20px; line-height: normal; font-family: Arial, Helvetica, sans-serif; font-size-adjust: none; font-kerning: auto; font-variant-alternates: normal; font-variant-ligatures: normal; font-variant-numeric: normal; font-variant-east-asian: normal; font-variant-position: normal; font-variant-emoji: normal; font-feature-settings: normal; font-optical-sizing: auto; font-variation-settings: normal; white-space: pre;"><tspan x="12" y="33" dominant-baseline="ideographic">Concurrency</tspan></text></g></g></g><g id="g-root-tx_5_htdvksx32upy-fill" data-item-order="0" transform="translate(44, 728)"><g id="tx_5_htdvksx32upy-fill" stroke="none" fill="#f4f4f4"><g><text style="font-style: normal; font-variant-caps: normal; font-weight: bold; font-width: normal; font-size: 30px; line-height: normal; font-family: Arial, Helvetica, sans-serif; font-size-adjust: none; font-kerning: auto; font-variant-alternates: normal; font-variant-ligatures: normal; font-variant-numeric: normal; font-variant-east-asian: normal; font-variant-position: normal; font-variant-emoji: normal; font-feature-settings: normal; font-optical-sizing: auto; font-variation-settings: normal; white-space: pre;"><tspan x="13.66" y="44" dominant-baseline="ideographic">5</tspan></text></g></g></g><g id="g-root-tx_golangss_8ydcf0x32scv-fill" data-item-order="0" transform="translate(86, 716.2269287109375)"><g id="tx_golangss_8ydcf0x32scv-fill" stroke="none" fill="#f4f4f4"><g><text style="font-style: normal; font-variant-caps: normal; font-weight: normal; font-width: normal; font-size: 15px; line-height: normal; font-family: Arial, Helvetica, sans-serif; font-size-adjust: none; font-kerning: auto; font-variant-alternates: normal; font-variant-ligatures: normal; font-variant-numeric: normal; font-variant-east-asian: normal; font-variant-position: normal; font-variant-emoji: normal; font-feature-settings: normal; font-optical-sizing: auto; font-variation-settings: normal; white-space: pre;"><tspan x="12" y="30" dominant-baseline="ideographic">Golang's standard </tspan><tspan x="12" y="48" dominant-baseline="ideographic">library offers robust </tspan><tspan x="12" y="66" dominant-baseline="ideographic">functionality.</tspan></text></g></g></g><g id="g-root-tx_simplici_1lt0cv0x32s5d-fill" data-item-order="0" transform="translate(290, 158.22702026367188)"><g id="tx_simplici_1lt0cv0x32s5d-fill" stroke="none" fill="#b7b7b7"><g><text style="font-style: normal; font-variant-caps: normal; font-weight: bold; font-width: normal; font-size: 20px; line-height: normal; font-family: Arial, Helvetica, sans-serif; font-size-adjust: none; font-kerning: auto; font-variant-alternates: normal; font-variant-ligatures: normal; font-variant-numeric: normal; font-variant-east-asian: normal; font-variant-position: normal; font-variant-emoji: normal; font-feature-settings: normal; font-optical-sizing: auto; font-variation-settings: normal; white-space: pre;"><tspan x="12" y="33" dominant-baseline="ideographic">Simplicity</tspan></text></g></g></g><g id="g-root-cp_5_g-5_1d2d5b0x31e6i-stroke" data-item-order="-795590" transform="translate(242.06201171875, 458.2309875488281)"><g id="cp_5_g-5_1d2d5b0x31e6i-stroke" fill="none" stroke-linecap="butt" stroke-linejoin="miter" stroke-miterlimit="4" stroke="#f4f4f4" stroke-width="1"><g><path d="M 292.3765 196.1963L 472.8773 10L 484.233 21.7143C 506.7153 44.9066 537.637 57.9972 569.9377 57.9972L 569.944 57.9972C 563.6213 57.9972 557.5684 60.5596 553.1676 65.0993L 361.3047 263.0161C 309.8851 316.0582 239.1644 345.9972 165.2899 345.9972L 10 345.9972L 10 345.9273L 40.9377 297.9971L 10 250.0668L 10 249.9972L 165.2899 249.9972C 213.1866 249.9972 259.0385 230.5862 292.3765 196.1963Z"></path></g></g></g><g id="g-root-cp_4_g-4_1d2d5b0x31e6k-stroke" data-item-order="-795586" transform="translate(242.06201171875, 458.2109680175781)"><g id="cp_4_g-4_1d2d5b0x31e6k-stroke" fill="none" stroke-linecap="butt" stroke-linejoin="miter" stroke-miterlimit="4" stroke="#f4f4f4" stroke-width="1"><g><path d="M 384.737 58.0154C 344.6919 58.0154 306.356 41.7881 278.4807 13.0378L 275.5354 10L 197.7908 90.2073C 187.9965 100.3119 174.5249 106.0154 160.4525 106.0154L 10 106.0154L 10 106.0852L 40.9377 154.0154L 10 201.9456L 10 202.0154L 160.4525 202.0154C 200.5047 202.0154 238.8468 185.7823 266.7231 157.023L 347.368 73.8235C 357.1623 63.7189 370.6339 58.0154 384.7063 58.0154L 384.737 58.0154Z"></path></g></g></g><g id="g-root-cp_3_g-3_18mjn6kx31eyu-stroke" data-item-order="-795582" transform="translate(242, 410.2269592285156)"><g id="cp_3_g-3_18mjn6kx31eyu-stroke" fill="none" stroke-linecap="butt" stroke-linejoin="miter" stroke-miterlimit="4" stroke="#f4f4f4" stroke-width="1"><g><path d="M 10 105.9997L 41 58L 10 10.0003L 229.0735 10L 275.5977 57.9846L 229.0566 106L 10 105.9997Z"></path></g></g></g><g id="g-root-cp_2_g-2_18mjn6kx31eyw-stroke" data-item-order="-795578" transform="translate(242.0059814453125, 266.2269592285156)"><g id="cp_2_g-2_18mjn6kx31eyw-stroke" fill="none" stroke-linecap="butt" stroke-linejoin="miter" stroke-miterlimit="4" stroke="#f4f4f4" stroke-width="1"><g><path d="M 10 105.9926L 40.9937 58L 10 10.0074L 10 10L 160.5168 10C 200.5619 10 238.8979 26.2274 266.7732 54.9777L 347.4596 138.1971C 357.2536 148.2985 370.723 154 384.7929 154L 426.3996 154L 472.9332 202.0029L 426.4043 250L 384.7929 250C 344.7478 250 306.4119 233.7727 278.5366 205.0223L 197.8501 121.803C 188.0561 111.7015 174.5867 106 160.5168 106L 10 106L 10 105.9926Z"></path></g></g></g><g id="g-root-cp_1_g-1_18mjn6kx31eyy-stroke" data-item-order="-795574" transform="translate(242.062255859375, 122.22698974609375)"><g id="cp_1_g-1_18mjn6kx31eyy-stroke" fill="none" stroke-linecap="butt" stroke-linejoin="miter" stroke-miterlimit="4" stroke="#f4f4f4" stroke-width="1"><g><path d="M 10 105.9302L 40.9377 58L 10 10.0698L 10 10L 165.2884 10C 239.1639 10 309.8856 39.9398 361.3054 92.9832L 553.162 290.898C 557.5626 295.4377 563.6152 298 569.9377 298L 759.9375 298L 790.9377 346L 759.9376 393.9999L 569.9377 394C 537.637 394 506.7153 380.9094 484.233 357.7171L 292.3763 159.8023C 259.0383 125.4115 213.1857 106 165.2884 106L 10 106L 10 105.9302Z"></path></g></g></g><g id="g-root-tx_standard_mb2sykx32sy5-stroke" data-item-order="0" transform="translate(290, 722.2269287109375)"></g><g id="g-root-tx_golangen_dcbfa4x32tc1-stroke" data-item-order="0" transform="translate(98, 278.2270202636719)"></g><g id="g-root-tx_2_qnrxngx32rr4-stroke" data-item-order="0" transform="translate(44, 296.0000305175781)"></g><g id="g-root-tx_efficien_1cxdcm4x32sy2-stroke" data-item-order="0" transform="translate(290, 302.2270202636719)"></g><g id="g-root-tx_golangsu_1lr4xlox32t4z-stroke" data-item-order="0" transform="translate(86, 422.2269592285156)"></g><g id="g-root-tx_golangsd_4pf28sx31de6-stroke" data-item-order="0" transform="translate(86, 140.22702026367188)"></g><g id="g-root-tx_3_1hdzwx32rr6-stroke" data-item-order="0" transform="translate(44, 440.0000305175781)"></g><g id="g-root-tx_scalabil_zlwu8sx32uiz-stroke" data-item-order="0" transform="translate(290, 446.2269592285156)"></g><g id="g-root-tx_golangsi_2qc64x32txc-stroke" data-item-order="0" transform="translate(830, 434.2269592285156)"></g><g id="g-root-ic_gola_1lz93q4x31fk7-stroke" data-item-order="0" transform="translate(939, 434.2269592285156)"><g id="ic_gola_1lz93q4x31fk7-stroke" fill="none" stroke-linecap="butt" stroke-linejoin="miter" stroke-miterlimit="4" stroke="#f4f4f4" stroke-width="1"><g><path d="M 37.139999 28.16C 35.650711 26.133295 33.313717 24.902134 30.799999 24.82C 25.866879 24.719982 21.678368 28.41317 21.16 33.32C 20.889954 35.606277 21.591042 37.901024 23.092716 39.646011C 24.594391 41.390991 26.75901 42.426273 29.060001 42.5C 33.98904 42.599113 38.171349 38.903728 38.68 34L 32.32 34M 42.043472 41.004818C 45.512672 44.217022 51.087261 43.837467 54.494133 40.157089C 57.901001 36.476715 57.849812 30.889456 54.379803 27.678131C 50.910603 24.465927 45.336014 24.845484 41.929146 28.525856C 38.52227 32.20623 38.573463 37.793495 42.043472 41.004818M 18.5 27.959999L 13.32 27.959999M 18.08 31.540001L 11 31.540001M 17.860001 35.099998L 15.42 35.099998"></path></g></g></g><g id="g-root-tx_1_i093j0x31ez1-stroke" data-item-order="0" transform="translate(44, 152)"></g><g id="g-root-tx_building_146q524x31fr8-stroke" data-item-order="0" transform="translate(278, 38)"></g><g id="g-root-tx_golangex_v4udy4x32t51-stroke" data-item-order="0" transform="translate(110, 566.2269287109375)"></g><g id="g-root-tx_4_18fof8cx32upw-stroke" data-item-order="0" transform="translate(44, 584)"></g><g id="g-root-tx_concurre_v6pt7gx32s5g-stroke" data-item-order="0" transform="translate(290, 590.2269287109375)"></g><g id="g-root-tx_5_htdvksx32upy-stroke" data-item-order="0" transform="translate(44, 728)"></g><g id="g-root-tx_golangss_8ydcf0x32scv-stroke" data-item-order="0" transform="translate(86, 716.2269287109375)"></g><g id="g-root-tx_simplici_1lt0cv0x32s5d-stroke" data-item-order="0" transform="translate(290, 158.22702026367188)"></g></g></g><path id="w1lse8f0xwqbcw" d="M65.283 12.757a.35.35 0 0 0 .584.157l5.203-5.141-6.183 3.523.396 1.461zm-2.216-11.7a.35.35 0 0 0-.522.305v3.111l3.276-1.868-2.754-1.548zm3.728 2.105l-4.25 2.421v2.445l6.391-3.644-2.141-1.222zm4.708 3.303a.35.35 0 0 0 0-.609l-1.592-.9-7.365 4.199v1.782a.35.35 0 0 0 .523.305l8.435-4.777z M44.542 2.513c0-.433.355-.783.792-.783s.792.35.792.783-.355.783-.792.783-.792-.35-.792-.783zm59.171 0c0-.433.355-.783.792-.783s.792.35.792.783-.355.783-.792.783-.792-.35-.792-.783zm-85.951 7.636h-1.27v-.487c-.276.201-.864.609-1.881.609-1.202 0-2.274-.794-2.137-2.078.118-1.106 1.153-1.584 1.848-1.727l2.17-.345c0-.539-.29-.956-1.064-1.006s-1.21.305-1.571 1.017l-1.124-.605c1.218-2.631 5.029-1.764 5.029.414v4.207zm-1.27-2.86c.006.396-.062 1.112-.819 1.59-.587.37-1.841.299-1.903-.395-.049-.555.461-.791.906-.898l1.816-.297zm72.662 2.86h-1.27v-.487c-.276.201-.864.609-1.881.609-1.202 0-2.274-.794-2.137-2.078.118-1.106 1.153-1.584 1.848-1.727l2.17-.345c0-.539-.29-.956-1.064-1.006s-1.21.305-1.571 1.017l-1.124-.605c1.218-2.631 5.029-1.764 5.029.414v4.207zm-1.27-2.86c.006.396-.062 1.112-.82 1.59-.587.37-1.841.299-1.903-.395-.049-.555.461-.791.906-.898l1.816-.297zM99.096 10.149H97.85v-8.45h1.246v4.895l2.68-2.559h1.738l-2.633 2.535 2.715 3.578h-1.556l-2.077-2.707-.867.844v1.863zm6.053-6.114h-1.255v6.113h1.255V4.035zm-59.2 0h-1.255v6.113h1.255V4.035zm5.584 6.113V1.697h1.255v2.695c.361-.346 1-.485 1.47-.485 1.452 0 2.477 1.082 2.457 2.448v3.792h-1.27v-3.68c0-.408-.214-1.339-1.315-1.339-.968 0-1.342.756-1.342 1.339v3.681h-1.255zm-4.76-4.894V4.039h.621a.45.45 0 0 0 .45-.45v-.855h1.251v1.305h1.309v1.215h-1.309v3.109c0 .293.105.664.648.664.365 0 .531-.035.736-.07v1.137s-.361.113-.857.113c-1.398 0-1.777-1.051-1.777-1.788V5.254h-1.071zM36.528 4.039h-1.394l2.191 6.106h1.125l1.234-3.918 1.238 3.918h1.129l2.188-6.106h-1.383l-1.359 3.93-1.256-3.93h-1.124l-1.242 3.957-1.348-3.957zM26.212 7.141c-.02 1.566 1.187 3.129 3.223 3.129 1.566 0 2.383-.918 2.734-1.719L31.172 8c-.315.399-.801 1.094-1.738 1.094-1.145 0-1.825-.781-1.891-1.52h4.625c.074-.284.148-.995-.03-1.559-.336-1.064-1.221-2.102-2.839-2.102s-3.088 1.152-3.088 3.227zm1.363-.75h3.348c-.055-.43-.566-1.301-1.623-1.301a1.79 1.79 0 0 0-1.725 1.301zm-8.758.75c.038 1.758 1.277 3.133 3.145 3.133 1.074 0 1.723-.477 1.961-.672v.547h1.242V1.703h-1.258v2.888c-.414-.36-1.062-.68-1.93-.68-1.91 0-3.198 1.473-3.16 3.23zm1.309-.08c0 1.119.723 1.978 1.836 1.978a1.88 1.88 0 0 0 1.94-1.904c0-1.371-1.011-1.99-1.972-1.99s-1.805.798-1.805 1.916zm76.683-.028C96.771 5.275 95.532 3.9 93.664 3.9c-1.074 0-1.723.477-1.961.672v-.547h-1.242v8.22h1.258V9.583c.414.36 1.063.68 1.93.68 1.91 0 3.198-1.473 3.16-3.23zm-1.309.08c0-1.119-.723-1.978-1.836-1.978a1.88 1.88 0 0 0-1.94 1.904c0 1.371 1.011 1.99 1.972 1.99S95.5 8.231 95.5 7.113zM106.441 10.173V4.036h1.254v.382c.361-.346 1-.485 1.47-.485 1.452 0 2.477 1.082 2.457 2.448v3.792h-1.27V6.492c0-.408-.214-1.339-1.315-1.339-.969 0-1.342.756-1.342 1.339v3.681h-1.254zm-30.383-.021V1.824h1.084l4.215 5.777V1.824h1.32v8.328h-1.094l-4.207-5.796v5.796h-1.319zM5.24 10.149H4V2.377h1.014l2.664 3.597 2.654-3.592h1.03v7.766h-1.256V4.762L7.678 8.068 5.24 4.742v5.407z" transform="translate(932, 830)" fill="#ababab88" stroke="none"></path></svg>