<svg xmlns="http://www.w3.org/2000/svg" viewBox="0 0 640 512">
  <path d="M278.9 511.5l-61-17.7c-6.5-1.8-10.1-8.6-8.3-15.1l21.7-82c-46.1-40.4-75-96.6-75-158.7C136 99.7 176.7 59 228 59c46.1 0 84.8 30.7 97.1 72.8c12.3-42.1 51-72.8 97.1-72.8c51.3 0 92 40.7 92 91c0 62.1-28.9 118.3-75 158.7l21.7 82c1.8 6.5-1.8 13.3-8.3 15.1l-61 17.7c-5.2 1.5-10.9-.5-13.5-4.9l-38.4-64.7c-3.7-6.2-12.6-6.2-16.3 0l-38.4 64.7c-2.6 4.4-8.3 6.4-13.5 4.9zM228 119c-30.9 0-56 25.1-56 56c0 30.9 25.1 56 56 56s56-25.1 56-56c0-30.9-25.1-56-56-56zm184 56c0-30.9-25.1-56-56-56s-56 25.1-56 56c0 30.9 25.1 56 56 56s56-25.1 56-56z"/>
</svg> 