<svg xmlns="http://www.w3.org/2000/svg" viewBox="0 0 640 512">
  <path d="M96 224c35.3 0 64-28.7 64-64s-28.7-64-64-64S32 124.7 32 160s28.7 64 64 64zm448 0c35.3 0 64-28.7 64-64s-28.7-64-64-64s-64 28.7-64 64s28.7 64 64 64zm-32 32h-64c-17.6 0-33.8 5.8-46.8 15.4c-20.6-15.2-47.2-24.2-76.2-24.2c-29 0-55.6 9-76.2 24.2c-13-9.6-29.2-15.4-46.8-15.4h-64c-35.3 0-64 20.7-64 48v32c0 17.7 14.3 32 32 32h512c17.7 0 32-14.3 32-32v-32c0-27.3-28.7-48-64-48zm-256 0c-35.3 0-64-28.7-64-64s28.7-64 64-64s64 28.7 64 64s-28.7 64-64 64zm96 96H192c-17.7 0-32 14.3-32 32v32c0 17.7 14.3 32 32 32h256c17.7 0 32-14.3 32-32v-32c0-17.7-14.3-32-32-32z"/>
</svg> 