<?xml version="1.0" encoding="utf-8" standalone="yes"?>
<!DOCTYPE svg PUBLIC "-//W3C//DTD SVG 1.1//EN" "http://www.w3.org/Graphics/SVG/1.1/DTD/svg11.dtd">
<svg width="822" height="395" viewBox="0 0 822 395" style="fill:none;stroke:none;fill-rule:evenodd;clip-rule:evenodd;stroke-linecap:round;stroke-linejoin:round;stroke-miterlimit:1.5;" version="1.1" xmlns="http://www.w3.org/2000/svg" xmlns:xlink="http://www.w3.org/1999/xlink"><style class="text-font-style fontImports" data-font-family="Roboto">@import url('https://fonts.googleapis.com/css2?family=Roboto:wght@400;700&amp;display=block');</style><g id="items" style="isolation: isolate"><g id="blend" style="mix-blend-mode: normal"><g id="g-root-sy_3_cu_qqx6rmy6rdak-fill" data-item-order="-56368" transform="translate(275.13970947265625, 98)"><g id="sy_3_cu_qqx6rmy6rdak-fill" stroke="none" fill="#4f91fc"><g><path d="M 206.994 130L 148.333 130L 176 82L 162.167 58L 134 58L 147.834 82L 120.167 130L 64.8336 130L 51.0003 106L 23.8333 106L 51.5 154L 206.994 154C 211.624 164.595 222.196 172 234.498 172C 251.067 172 264.498 158.569 264.498 142C 264.498 125.431 251.067 112 234.498 112C 222.196 112 211.624 119.405 206.994 130ZM 10 82L 37.167 82L 64.8337 34L 148.333 34L 134.5 10.000004L 51.5 10L 10 82Z"></path></g></g></g><g id="g-root-sy_2_cu_mb3on6y6re2t-fill" data-item-order="-56364" transform="translate(302.30670166015625, 104)"><g id="sy_2_cu_mb3on6y6re2t-fill" stroke="none" fill="#43dd93"><g><path d="M 37.6667 28L 179.829 28C 184.458 17.4046 195.03 10 207.332 10C 223.9 10 237.331 23.431 237.331 39.999C 237.331 56.567 223.9 69.998 207.332 69.998C 195.031 69.998 184.459 62.5944 179.83 52L 106.8333 52L 120.667 76L 93 124L 37.6667 124L 23.8333 100L 78.666 100L 92.4994 76L 78.666 52L 50.9993 52L 37.166 76L 10 76L 37.6667 28Z"></path></g></g></g><g id="g-root-sy_1_cu_dg35hey6rbpq-fill" data-item-order="-56360" transform="translate(181.6396484375, 146)"><g id="sy_1_cu_dg35hey6rbpq-fill" stroke="none" fill="#b7b7b7"><g><path d="M 213.166 34L 199.333 58L 67.9192 58C 63.5318 69.1266 52.6854 77 40 77C 23.4315 77 10 63.5685 10 47C 10 30.4315 23.4315 17 40 17C 51.9111 17 62.2009 23.9416 67.0447 34L 157.833 34L 171.666 10L 199.333 10L 213.166 34Z"></path></g></g></g><g id="g-root-tx_layereda_dg35hey6rbpr-fill" data-item-order="0" transform="translate(175.6396484375, 26)"><g id="tx_layereda_dg35hey6rbpr-fill" stroke="none" fill="#f4f4f4"><g><text style="font-style: normal; font-variant-caps: normal; font-weight: bold; font-width: normal; font-size: 25px; line-height: normal; font-family: Roboto, sans-serif; font-size-adjust: none; font-kerning: auto; font-variant-alternates: normal; font-variant-ligatures: normal; font-variant-numeric: normal; font-variant-east-asian: normal; font-variant-position: normal; font-variant-emoji: normal; font-feature-settings: normal; font-optical-sizing: auto; font-variation-settings: normal; white-space: pre;"><tspan x="15.18" y="42" dominant-baseline="ideographic">Layered Architecture Hierarchy</tspan></text></g></g></g><g id="g-root-ic_up_hs5t36y6sruo-fill" data-item-order="0" transform="translate(481.638671875, 116)"></g><g id="g-root-tx_applicat_18hkq6ay6vklk-fill" data-item-order="0" transform="translate(541.6396484375, 122)"><g id="tx_applicat_18hkq6ay6vklk-fill" stroke="none" fill="#43dd93"><g><text style="font-style: normal; font-variant-caps: normal; font-weight: bold; font-width: normal; font-size: 20px; line-height: normal; font-family: Roboto, sans-serif; font-size-adjust: none; font-kerning: auto; font-variant-alternates: normal; font-variant-ligatures: normal; font-variant-numeric: normal; font-variant-east-asian: normal; font-variant-position: normal; font-variant-emoji: normal; font-feature-settings: normal; font-optical-sizing: auto; font-variation-settings: normal; white-space: pre;"><tspan x="12" y="34" dominant-baseline="ideographic">Application Layer</tspan></text></g></g></g><g id="g-root-tx_domainla_hva6iqy6vklm-fill" data-item-order="0" transform="translate(37.6396484375, 170)"><g id="tx_domainla_hva6iqy6vklm-fill" stroke="none" fill="#b7b7b7"><g><text style="font-style: normal; font-variant-caps: normal; font-weight: bold; font-width: normal; font-size: 20px; line-height: normal; font-family: Roboto, sans-serif; font-size-adjust: none; font-kerning: auto; font-variant-alternates: normal; font-variant-ligatures: normal; font-variant-numeric: normal; font-variant-east-asian: normal; font-variant-position: normal; font-variant-emoji: normal; font-feature-settings: normal; font-optical-sizing: auto; font-variation-settings: normal; white-space: pre;"><tspan x="16" y="34" dominant-baseline="ideographic">Domain Layer</tspan></text></g></g></g><g id="g-root-ic_devi_1qaq5xey6rbi8-fill" data-item-order="0" transform="translate(193.6396484375, 164)"></g><g id="g-root-tx_orchestr_1lt18jmy6vj0n-fill" data-item-order="0" transform="translate(542, 158.5)"><g id="tx_orchestr_1lt18jmy6vj0n-fill" stroke="none" fill="#dffff0"><g><text style="font-style: normal; font-variant-caps: normal; font-weight: normal; font-width: normal; font-size: 15px; line-height: normal; font-family: Roboto, sans-serif; font-size-adjust: none; font-kerning: auto; font-variant-alternates: normal; font-variant-ligatures: normal; font-variant-numeric: normal; font-variant-east-asian: normal; font-variant-position: normal; font-variant-emoji: normal; font-feature-settings: normal; font-optical-sizing: auto; font-variation-settings: normal; white-space: pre;"><tspan x="12" y="28" dominant-baseline="ideographic">Orchestration and defines </tspan><tspan x="12" y="46" dominant-baseline="ideographic">interfaces for it's needs.</tspan></text></g></g></g><g id="g-root-tx_puredoma_v6qow2y6vj0p-fill" data-item-order="0" transform="translate(38, 206.5)"><g id="tx_puredoma_v6qow2y6vj0p-fill" stroke="none" fill="#f4f4f4"><g><text style="font-style: normal; font-variant-caps: normal; font-weight: normal; font-width: normal; font-size: 15px; line-height: normal; font-family: Roboto, sans-serif; font-size-adjust: none; font-kerning: auto; font-variant-alternates: normal; font-variant-ligatures: normal; font-variant-numeric: normal; font-variant-east-asian: normal; font-variant-position: normal; font-variant-emoji: normal; font-feature-settings: normal; font-optical-sizing: auto; font-variation-settings: normal; white-space: pre;"><tspan x="12" y="28" dominant-baseline="ideographic">Business logic </tspan><tspan x="12" y="46" dominant-baseline="ideographic">implemented with </tspan><tspan x="12" y="64" dominant-baseline="ideographic">pure functions and </tspan><tspan x="12" y="82" dominant-baseline="ideographic">immutable types</tspan></text></g></g></g><g id="g-root-ic_chec_dhc3nmy6ss21-fill" data-item-order="0" transform="translate(481.6396484375, 212)"></g><g id="g-root-tx_infrastr_4ikpz6y6vk0e-fill" data-item-order="0" transform="translate(541.6396484375, 206)"><g id="tx_infrastr_4ikpz6y6vk0e-fill" stroke="none" fill="#4f91fc"><g><text style="font-style: normal; font-variant-caps: normal; font-weight: bold; font-width: normal; font-size: 20px; line-height: normal; font-family: Roboto, sans-serif; font-size-adjust: none; font-kerning: auto; font-variant-alternates: normal; font-variant-ligatures: normal; font-variant-numeric: normal; font-variant-east-asian: normal; font-variant-position: normal; font-variant-emoji: normal; font-feature-settings: normal; font-optical-sizing: auto; font-variation-settings: normal; white-space: pre;"><tspan x="12" y="46" dominant-baseline="ideographic">Infrastructure Layer</tspan></text></g></g></g><g id="g-root-tx_concrete_qp1riay6vksl-fill" data-item-order="0" transform="translate(542, 254.5)"><g id="tx_concrete_qp1riay6vksl-fill" stroke="none" fill="#ebf2ff"><g><text style="font-style: normal; font-variant-caps: normal; font-weight: normal; font-width: normal; font-size: 15px; line-height: normal; font-family: Roboto, sans-serif; font-size-adjust: none; font-kerning: auto; font-variant-alternates: normal; font-variant-ligatures: normal; font-variant-numeric: normal; font-variant-east-asian: normal; font-variant-position: normal; font-variant-emoji: normal; font-feature-settings: normal; font-optical-sizing: auto; font-variation-settings: normal; white-space: pre;"><tspan x="12" y="37" dominant-baseline="ideographic">Implements application interface </tspan><tspan x="12" y="55" dominant-baseline="ideographic">needs and provides the entry point </tspan><tspan x="12" y="73" dominant-baseline="ideographic">into application.</tspan></text></g></g></g><g id="g-root-sy_3_cu_qqx6rmy6rdak-stroke" data-item-order="-56368" transform="translate(275.13970947265625, 98)"><g id="sy_3_cu_qqx6rmy6rdak-stroke" fill="none" stroke-linecap="round" stroke-linejoin="round" stroke-miterlimit="4" stroke="#2c2c2c" stroke-width="2"><g><path d="M 206.9943 130L 148.3333 130L 176 82L 162.1667 58L 134.0003 58L 147.8337 82L 120.167 130L 64.8336 130L 51.0003 106L 23.8333 106L 51.5 154L 206.9943 154C 211.6237 164.5954 222.1961 172 234.498 172C 251.0666 172 264.498 158.5685 264.498 142C 264.498 125.4315 251.0666 112 234.498 112C 222.1961 112 211.6237 119.4046 206.9943 130ZM 10 82L 37.167 82L 64.8337 34L 148.3333 34L 134.5 10L 51.5 10L 10 82Z"></path></g></g></g><g id="g-root-sy_2_cu_mb3on6y6re2t-stroke" data-item-order="-56364" transform="translate(302.30670166015625, 104)"><g id="sy_2_cu_mb3on6y6re2t-stroke" fill="none" stroke-linecap="round" stroke-linejoin="round" stroke-miterlimit="4" stroke="#2c2c2c" stroke-width="2"><g><path d="M 37.6667 28L 179.8289 28C 184.458 17.4046 195.0303 10 207.332 10C 223.9 10 237.3311 23.431 237.3311 39.999C 237.3311 56.567 223.9 69.998 207.332 69.998C 195.031 69.998 184.4593 62.5944 179.8298 52L 106.8333 52L 120.6667 76L 93 124L 37.6667 124L 23.8333 100L 78.666 100L 92.4994 76L 78.666 52L 50.9993 52L 37.166 76L 10 76L 37.6667 28Z"></path></g></g></g><g id="g-root-sy_1_cu_dg35hey6rbpq-stroke" data-item-order="-56360" transform="translate(181.6396484375, 146)"><g id="sy_1_cu_dg35hey6rbpq-stroke" fill="none" stroke-linecap="round" stroke-linejoin="round" stroke-miterlimit="4" stroke="#2c2c2c" stroke-width="2"><g><path d="M 213.1664 34L 199.3331 58L 67.9192 58C 63.5318 69.1266 52.6854 77 40 77C 23.4315 77 10 63.5685 10 47C 10 30.4315 23.4315 17 40 17C 51.9111 17 62.2009 23.9416 67.0447 34L 157.8331 34L 171.6664 10L 199.3331 10L 213.1664 34Z"></path></g></g></g><g id="g-root-tx_layereda_dg35hey6rbpr-stroke" data-item-order="0" transform="translate(175.6396484375, 26)"></g><g id="g-root-ic_up_hs5t36y6sruo-stroke" data-item-order="0" transform="translate(481.638671875, 116)"><g id="ic_up_hs5t36y6sruo-stroke" fill="none" stroke-linecap="round" stroke-linejoin="round" stroke-miterlimit="4" stroke="#2c2c2c" stroke-width="2"><g><path d="M 11.125 44.875C 13.36504 44.875 15.605095 44.875 17.845135 42.625C 20.085175 44.875 22.325214 44.875 22.92256 44.875C 23.519905 44.875 25.759901 44.875 28 42.625C 30.240099 44.875 32.480049 44.875 33.077499 44.875C 33.674801 44.875 35.914749 44.875 38.15485 42.625C 40.394951 44.875 42.634899 44.875 44.875 44.875M 40.224998 16.593716C 42.978699 16.593716 45.211151 15.369505 45.211151 13.859365C 45.211151 12.34921 42.978699 11.125 40.224998 11.125C 37.471149 11.125 35.23885 12.34921 35.23885 13.859365C 35.23885 15.369505 37.471149 16.593716 40.224998 16.593716ZM 35.23885 13.859275L 35.23885 21.258131C 35.23885 22.705736 37.49065 23.992495 40.224998 23.992495C 42.959351 23.992495 45.211151 22.705736 45.211151 21.258131L 45.211151 13.859275M 13.44439 39.09985C 13.44439 38.602898 13.27873 38.105949 12.78172 37.608849L 11.787685 36.614799C 11.125005 36.117851 10.959328 35.123802 11.290668 34.461098C 11.62201 33.632801 12.284695 33.301449 13.113055 33.301449L 14.438425 33.301449C 14.935435 33.301449 15.598104 33.135849 15.929455 32.804501C 16.26079 32.473148 16.426464 31.984301 16.426464 31.313351L 16.426464 29.9881C 16.426464 29.159649 16.923475 28.331348 17.586159 28.1656C 18.414505 27.8344 19.242865 28 19.739876 28.662701L 20.73391 29.65675C 21.065245 29.9881 21.562256 30.31945 22.224939 30.31945C 22.887609 30.31945 23.218945 30.1537 23.715954 29.65675L 24.70999 28.662701C 25.206999 28 26.20105 27.8344 26.86375 28.1656C 27.692049 28.49695 28.023399 29.159649 28.023399 29.9881L 28.023399 31.313351C 28.023399 31.810452 28.18915 32.473148 28.52035 32.804501C 28.8517 33.135849 29.5144 33.467201 30.011499 33.301449L 31.33675 33.301449C 32.165199 33.301449 32.9935 33.798401 33.159248 34.461098C 33.490601 35.289551 33.324852 36.117851 32.662151 36.614799L 31.6681 37.608849C 31.33675 37.940201 31.0054 38.437302 31.0054 39.09985M 18.580135 39.09985C 18.580135 37.111748 20.236855 35.289398 22.39057 35.289398C 24.378611 35.289398 26.035299 36.945999 26.035299 39.09985M 40.224998 27.54985L 40.224998 38.499851M 10 10M 37.224998 30.549999L 40.224998 27.549999L 43.224998 30.549999M 45.211151 17.529745C 45.211151 19.071865 42.978851 20.32201 40.224998 20.32201C 37.471149 20.32201 35.23885 19.071865 35.23885 17.529745"></path></g></g></g><g id="g-root-tx_applicat_18hkq6ay6vklk-stroke" data-item-order="0" transform="translate(541.6396484375, 122)"></g><g id="g-root-tx_domainla_hva6iqy6vklm-stroke" data-item-order="0" transform="translate(37.6396484375, 170)"></g><g id="g-root-ic_devi_1qaq5xey6rbi8-stroke" data-item-order="0" transform="translate(193.6396484375, 164)"><g id="ic_devi_1qaq5xey6rbi8-stroke" fill="none" stroke-linecap="round" stroke-linejoin="round" stroke-miterlimit="4" stroke="#2c2c2c" stroke-width="2"><g><path d="M 41.5 37L 28 45.25L 14.5 37L 11.5 10.75L 44.5 10.75L 41.5 37ZM 24.25 21.25L 18.25 25.75L 24.25 30.25L 31.75 21.25L 37.75 25.75L 31.75 30.25"></path></g></g></g><g id="g-root-tx_orchestr_1lt18jmy6vj0n-stroke" data-item-order="0" transform="translate(542, 158.5)"></g><g id="g-root-tx_puredoma_v6qow2y6vj0p-stroke" data-item-order="0" transform="translate(38, 206.5)"></g><g id="g-root-ic_chec_dhc3nmy6ss21-stroke" data-item-order="0" transform="translate(481.6396484375, 212)"><g id="ic_chec_dhc3nmy6ss21-stroke" fill="none" stroke-linecap="round" stroke-linejoin="round" stroke-miterlimit="4" stroke="#2c2c2c" stroke-width="2"><g><path d="M 36.925003 20.800104L 18.925014 20.800104L 18.925014 44.800148L 36.925003 44.800148L 36.925003 20.800104ZM 39.925003 29.19985L 44.724998 29.19985M 39.925003 35.199852L 44.724998 35.199852M 39.925003 41.199852L 43.224998 41.199852C 44.125 41.199852 44.724998 40.59985 44.724998 39.699852L 44.724998 24.699894C 44.724998 23.799896 44.125 23.199894 43.224998 23.199894L 39.925003 23.199894M 19.675014 28.749849L 36.925003 28.749849M 19.675014 36.999851L 36.925003 36.999851M 15.924985 29.19985L 11.125 29.19985M 15.924985 35.199852L 11.125 35.199852M 15.925 41.199852L 12.625 41.199852C 11.725 41.199852 11.125 40.59985 11.125 39.699852L 11.125 24.699894C 11.125 23.799896 11.725 23.199894 12.625 23.199894L 15.925 23.199894M 10 10M 25.674999 12.699895L 27.924999 14.79988L 31.674999 11.19989"></path></g></g></g><g id="g-root-tx_infrastr_4ikpz6y6vk0e-stroke" data-item-order="0" transform="translate(541.6396484375, 206)"></g><g id="g-root-tx_concrete_qp1riay6vksl-stroke" data-item-order="0" transform="translate(542, 254.5)"></g></g></g><path id="w1luwnqzxmnzta" d="M65.283 12.757a.35.35 0 0 0 .584.157l5.203-5.141-6.183 3.523.396 1.461zm-2.216-11.7a.35.35 0 0 0-.522.305v3.111l3.276-1.868-2.754-1.548zm3.728 2.105l-4.25 2.421v2.445l6.391-3.644-2.141-1.222zm4.708 3.303a.35.35 0 0 0 0-.609l-1.592-.9-7.365 4.199v1.782a.35.35 0 0 0 .523.305l8.435-4.777z M44.542 2.513c0-.433.355-.783.792-.783s.792.35.792.783-.355.783-.792.783-.792-.35-.792-.783zm59.171 0c0-.433.355-.783.792-.783s.792.35.792.783-.355.783-.792.783-.792-.35-.792-.783zm-85.951 7.636h-1.27v-.487c-.276.201-.864.609-1.881.609-1.202 0-2.274-.794-2.137-2.078.118-1.106 1.153-1.584 1.848-1.727l2.17-.345c0-.539-.29-.956-1.064-1.006s-1.21.305-1.571 1.017l-1.124-.605c1.218-2.631 5.029-1.764 5.029.414v4.207zm-1.27-2.86c.006.396-.062 1.112-.819 1.59-.587.37-1.841.299-1.903-.395-.049-.555.461-.791.906-.898l1.816-.297zm72.662 2.86h-1.27v-.487c-.276.201-.864.609-1.881.609-1.202 0-2.274-.794-2.137-2.078.118-1.106 1.153-1.584 1.848-1.727l2.17-.345c0-.539-.29-.956-1.064-1.006s-1.21.305-1.571 1.017l-1.124-.605c1.218-2.631 5.029-1.764 5.029.414v4.207zm-1.27-2.86c.006.396-.062 1.112-.82 1.59-.587.37-1.841.299-1.903-.395-.049-.555.461-.791.906-.898l1.816-.297zM99.096 10.149H97.85v-8.45h1.246v4.895l2.68-2.559h1.738l-2.633 2.535 2.715 3.578h-1.556l-2.077-2.707-.867.844v1.863zm6.053-6.114h-1.255v6.113h1.255V4.035zm-59.2 0h-1.255v6.113h1.255V4.035zm5.584 6.113V1.697h1.255v2.695c.361-.346 1-.485 1.47-.485 1.452 0 2.477 1.082 2.457 2.448v3.792h-1.27v-3.68c0-.408-.214-1.339-1.315-1.339-.968 0-1.342.756-1.342 1.339v3.681h-1.255zm-4.76-4.894V4.039h.621a.45.45 0 0 0 .45-.45v-.855h1.251v1.305h1.309v1.215h-1.309v3.109c0 .293.105.664.648.664.365 0 .531-.035.736-.07v1.137s-.361.113-.857.113c-1.398 0-1.777-1.051-1.777-1.788V5.254h-1.071zM36.528 4.039h-1.394l2.191 6.106h1.125l1.234-3.918 1.238 3.918h1.129l2.188-6.106h-1.383l-1.359 3.93-1.256-3.93h-1.124l-1.242 3.957-1.348-3.957zM26.212 7.141c-.02 1.566 1.187 3.129 3.223 3.129 1.566 0 2.383-.918 2.734-1.719L31.172 8c-.315.399-.801 1.094-1.738 1.094-1.145 0-1.825-.781-1.891-1.52h4.625c.074-.284.148-.995-.03-1.559-.336-1.064-1.221-2.102-2.839-2.102s-3.088 1.152-3.088 3.227zm1.363-.75h3.348c-.055-.43-.566-1.301-1.623-1.301a1.79 1.79 0 0 0-1.725 1.301zm-8.758.75c.038 1.758 1.277 3.133 3.145 3.133 1.074 0 1.723-.477 1.961-.672v.547h1.242V1.703h-1.258v2.888c-.414-.36-1.062-.68-1.93-.68-1.91 0-3.198 1.473-3.16 3.23zm1.309-.08c0 1.119.723 1.978 1.836 1.978a1.88 1.88 0 0 0 1.94-1.904c0-1.371-1.011-1.99-1.972-1.99s-1.805.798-1.805 1.916zm76.683-.028C96.771 5.275 95.532 3.9 93.664 3.9c-1.074 0-1.723.477-1.961.672v-.547h-1.242v8.22h1.258V9.583c.414.36 1.063.68 1.93.68 1.91 0 3.198-1.473 3.16-3.23zm-1.309.08c0-1.119-.723-1.978-1.836-1.978a1.88 1.88 0 0 0-1.94 1.904c0 1.371 1.011 1.99 1.972 1.99S95.5 8.231 95.5 7.113zM106.441 10.173V4.036h1.254v.382c.361-.346 1-.485 1.47-.485 1.452 0 2.477 1.082 2.457 2.448v3.792h-1.27V6.492c0-.408-.214-1.339-1.315-1.339-.969 0-1.342.756-1.342 1.339v3.681h-1.254zm-30.383-.021V1.824h1.084l4.215 5.777V1.824h1.32v8.328h-1.094l-4.207-5.796v5.796h-1.319zM5.24 10.149H4V2.377h1.014l2.664 3.597 2.654-3.592h1.03v7.766h-1.256V4.762L7.678 8.068 5.24 4.742v5.407z" transform="translate(20, 360.5)" fill="#ababab88" stroke="none"></path></svg>