<?xml version="1.0" encoding="utf-8" standalone="yes"?>
<!DOCTYPE svg PUBLIC "-//W3C//DTD SVG 1.1//EN" "http://www.w3.org/Graphics/SVG/1.1/DTD/svg11.dtd">
<svg width="828" height="359" viewBox="0 0 828 359" style="fill:none;stroke:none;fill-rule:evenodd;clip-rule:evenodd;stroke-linecap:round;stroke-linejoin:round;stroke-miterlimit:1.5;" version="1.1" xmlns="http://www.w3.org/2000/svg" xmlns:xlink="http://www.w3.org/1999/xlink"><style class="text-font-style fontImports" data-font-family="Roboto">@import url('https://fonts.googleapis.com/css2?family=Roboto:wght@400;700&amp;display=block');</style><g id="items" style="isolation: isolate"><g id="blend" style="mix-blend-mode: normal"><g id="g-root-sy_3_cu_1d308l7z0lwxu-fill" data-item-order="-56368" transform="translate(299.13970947265625, 98)"><g id="sy_3_cu_1d308l7z0lwxu-fill" stroke="none" fill="#ffe711"><g><path d="M 206.994 130L 148.333 130L 176 82L 162.167 58L 134 58L 147.834 82L 120.167 130L 64.8336 130L 51.0003 106L 23.8333 106L 51.5 154L 206.994 154C 211.624 164.595 222.196 172 234.498 172C 251.067 172 264.498 158.569 264.498 142C 264.498 125.431 251.067 112 234.498 112C 222.196 112 211.624 119.405 206.994 130ZM 10 82L 37.167 82L 64.8337 34L 148.333 34L 134.5 10.000004L 51.5 10L 10 82Z"></path></g></g></g><g id="g-root-sy_2_cu_1d308l7z0lwxv-fill" data-item-order="-56364" transform="translate(326.30670166015625, 104)"><g id="sy_2_cu_1d308l7z0lwxv-fill" stroke="none" fill="#4f91fc"><g><path d="M 37.6667 28L 179.829 28C 184.458 17.4046 195.03 10 207.332 10C 223.9 10 237.331 23.431 237.331 39.999C 237.331 56.567 223.9 69.998 207.332 69.998C 195.031 69.998 184.459 62.5944 179.83 52L 106.8333 52L 120.667 76L 93 124L 37.6667 124L 23.8333 100L 78.666 100L 92.4994 76L 78.666 52L 50.9993 52L 37.166 76L 10 76L 37.6667 28Z"></path></g></g></g><g id="g-root-sy_1_cu_147d8cbz0lxqk-fill" data-item-order="-56360" transform="translate(205.6396484375, 146)"><g id="sy_1_cu_147d8cbz0lxqk-fill" stroke="none" fill="#43dd93"><g><path d="M 213.166 34L 199.333 58L 67.9192 58C 63.5318 69.1266 52.6854 77 40 77C 23.4315 77 10 63.5685 10 47C 10 30.4315 23.4315 17 40 17C 51.9111 17 62.2009 23.9416 67.0447 34L 157.833 34L 171.666 10L 199.333 10L 213.166 34Z"></path></g></g></g><g id="g-root-tx_hexagona_147d8cbz0lxql-fill" data-item-order="0" transform="translate(175.6396484375, 26)"><g id="tx_hexagona_147d8cbz0lxql-fill" stroke="none" fill="#f4f4f4"><g><text style="font-style: normal; font-variant-caps: normal; font-weight: bold; font-width: normal; font-size: 25px; line-height: normal; font-family: Roboto, sans-serif; font-size-adjust: none; font-kerning: auto; font-variant-alternates: normal; font-variant-ligatures: normal; font-variant-numeric: normal; font-variant-east-asian: normal; font-variant-position: normal; font-variant-emoji: normal; font-feature-settings: normal; font-optical-sizing: auto; font-variation-settings: normal; white-space: pre;"><tspan x="15.03" y="42" dominant-baseline="ideographic">Hexagonal and Onion Architectures</tspan></text></g></g></g><g id="g-root-ic_fish_1cu9ldnz0rjep-fill" data-item-order="0" transform="translate(505.638671875, 116)"></g><g id="g-root-tx_portsser_zlxgfvz0szk0-fill" data-item-order="0" transform="translate(565.6396484375, 122)"><g id="tx_portsser_zlxgfvz0szk0-fill" stroke="none" fill="#4f91fc"><g><text style="font-style: normal; font-variant-caps: normal; font-weight: bold; font-width: normal; font-size: 20px; line-height: normal; font-family: Roboto, sans-serif; font-size-adjust: none; font-kerning: auto; font-variant-alternates: normal; font-variant-ligatures: normal; font-variant-numeric: normal; font-variant-east-asian: normal; font-variant-position: normal; font-variant-emoji: normal; font-feature-settings: normal; font-optical-sizing: auto; font-variation-settings: normal; white-space: pre;"><tspan x="12" y="34" dominant-baseline="ideographic">Ports/Services</tspan></text></g></g></g><g id="g-root-tx_corelogi_dfgewrz0syru-fill" data-item-order="0" transform="translate(85.6396484375, 170)"><g id="tx_corelogi_dfgewrz0syru-fill" stroke="none" fill="#43dd93"><g><text style="font-style: normal; font-variant-caps: normal; font-weight: bold; font-width: normal; font-size: 20px; line-height: normal; font-family: Roboto, sans-serif; font-size-adjust: none; font-kerning: auto; font-variant-alternates: normal; font-variant-ligatures: normal; font-variant-numeric: normal; font-variant-east-asian: normal; font-variant-position: normal; font-variant-emoji: normal; font-feature-settings: normal; font-optical-sizing: auto; font-variation-settings: normal; white-space: pre;"><tspan x="19" y="34" dominant-baseline="ideographic">Core Logic</tspan></text></g></g></g><g id="g-root-ic_data_mgpoxnz0lwxy-fill" data-item-order="0" transform="translate(217.6396484375, 164)"></g><g id="g-root-tx_interfac_18hkgorz0sxzj-fill" data-item-order="0" transform="translate(566, 158.5)"><g id="tx_interfac_18hkgorz0sxzj-fill" stroke="none" fill="#ebf2ff"><g><text style="font-style: normal; font-variant-caps: normal; font-weight: normal; font-width: normal; font-size: 15px; line-height: normal; font-family: Roboto, sans-serif; font-size-adjust: none; font-kerning: auto; font-variant-alternates: normal; font-variant-ligatures: normal; font-variant-numeric: normal; font-variant-east-asian: normal; font-variant-position: normal; font-variant-emoji: normal; font-feature-settings: normal; font-optical-sizing: auto; font-variation-settings: normal; white-space: pre;"><tspan x="12" y="31" dominant-baseline="ideographic">Interfaces for core interaction</tspan></text></g></g></g><g id="g-root-tx_centralb_qqwxa3z0sx6x-fill" data-item-order="0" transform="translate(14, 206.5)"><g id="tx_centralb_qqwxa3z0sx6x-fill" stroke="none" fill="#dffff0"><g><text style="font-style: normal; font-variant-caps: normal; font-weight: normal; font-width: normal; font-size: 15px; line-height: normal; font-family: Roboto, sans-serif; font-size-adjust: none; font-kerning: auto; font-variant-alternates: normal; font-variant-ligatures: normal; font-variant-numeric: normal; font-variant-east-asian: normal; font-variant-position: normal; font-variant-emoji: normal; font-feature-settings: normal; font-optical-sizing: auto; font-variation-settings: normal; white-space: pre;"><tspan x="12" y="28" dominant-baseline="ideographic">Central business logic and </tspan><tspan x="138" y="46" dominant-baseline="ideographic">entities</tspan></text></g></g></g><g id="g-root-ic_link_1ly0rqzz0rifg-fill" data-item-order="0" transform="translate(505.6396484375, 212)"></g><g id="g-root-tx_adapters_1lsehyzz0szke-fill" data-item-order="0" transform="translate(565.6396484375, 218)"><g id="tx_adapters_1lsehyzz0szke-fill" stroke="none" fill="#ffe711"><g><text style="font-style: normal; font-variant-caps: normal; font-weight: bold; font-width: normal; font-size: 20px; line-height: normal; font-family: Roboto, sans-serif; font-size-adjust: none; font-kerning: auto; font-variant-alternates: normal; font-variant-ligatures: normal; font-variant-numeric: normal; font-variant-east-asian: normal; font-variant-position: normal; font-variant-emoji: normal; font-feature-settings: normal; font-optical-sizing: auto; font-variation-settings: normal; white-space: pre;"><tspan x="12" y="34" dominant-baseline="ideographic">Adapters/Infrastructure</tspan></text></g></g></g><g id="g-root-tx_connecto_8ydym3z0sxdx-fill" data-item-order="0" transform="translate(566, 254.5)"><g id="tx_connecto_8ydym3z0sxdx-fill" stroke="none" fill="#fffbd5"><g><text style="font-style: normal; font-variant-caps: normal; font-weight: normal; font-width: normal; font-size: 15px; line-height: normal; font-family: Roboto, sans-serif; font-size-adjust: none; font-kerning: auto; font-variant-alternates: normal; font-variant-ligatures: normal; font-variant-numeric: normal; font-variant-east-asian: normal; font-variant-position: normal; font-variant-emoji: normal; font-feature-settings: normal; font-optical-sizing: auto; font-variation-settings: normal; white-space: pre;"><tspan x="12" y="28" dominant-baseline="ideographic">Connectors to external </tspan><tspan x="12" y="46" dominant-baseline="ideographic">systems</tspan></text></g></g></g><g id="g-root-sy_3_cu_1d308l7z0lwxu-stroke" data-item-order="-56368" transform="translate(299.13970947265625, 98)"><g id="sy_3_cu_1d308l7z0lwxu-stroke" fill="none" stroke-linecap="round" stroke-linejoin="round" stroke-miterlimit="4" stroke="#2c2c2c" stroke-width="2"><g><path d="M 206.9943 130L 148.3333 130L 176 82L 162.1667 58L 134.0003 58L 147.8337 82L 120.167 130L 64.8336 130L 51.0003 106L 23.8333 106L 51.5 154L 206.9943 154C 211.6237 164.5954 222.1961 172 234.498 172C 251.0666 172 264.498 158.5685 264.498 142C 264.498 125.4315 251.0666 112 234.498 112C 222.1961 112 211.6237 119.4046 206.9943 130ZM 10 82L 37.167 82L 64.8337 34L 148.3333 34L 134.5 10L 51.5 10L 10 82Z"></path></g></g></g><g id="g-root-sy_2_cu_1d308l7z0lwxv-stroke" data-item-order="-56364" transform="translate(326.30670166015625, 104)"><g id="sy_2_cu_1d308l7z0lwxv-stroke" fill="none" stroke-linecap="round" stroke-linejoin="round" stroke-miterlimit="4" stroke="#2c2c2c" stroke-width="2"><g><path d="M 37.6667 28L 179.8289 28C 184.458 17.4046 195.0303 10 207.332 10C 223.9 10 237.3311 23.431 237.3311 39.999C 237.3311 56.567 223.9 69.998 207.332 69.998C 195.031 69.998 184.4593 62.5944 179.8298 52L 106.8333 52L 120.6667 76L 93 124L 37.6667 124L 23.8333 100L 78.666 100L 92.4994 76L 78.666 52L 50.9993 52L 37.166 76L 10 76L 37.6667 28Z"></path></g></g></g><g id="g-root-sy_1_cu_147d8cbz0lxqk-stroke" data-item-order="-56360" transform="translate(205.6396484375, 146)"><g id="sy_1_cu_147d8cbz0lxqk-stroke" fill="none" stroke-linecap="round" stroke-linejoin="round" stroke-miterlimit="4" stroke="#2c2c2c" stroke-width="2"><g><path d="M 213.1664 34L 199.3331 58L 67.9192 58C 63.5318 69.1266 52.6854 77 40 77C 23.4315 77 10 63.5685 10 47C 10 30.4315 23.4315 17 40 17C 51.9111 17 62.2009 23.9416 67.0447 34L 157.8331 34L 171.6664 10L 199.3331 10L 213.1664 34Z"></path></g></g></g><g id="g-root-tx_hexagona_147d8cbz0lxql-stroke" data-item-order="0" transform="translate(175.6396484375, 26)"></g><g id="g-root-ic_fish_1cu9ldnz0rjep-stroke" data-item-order="0" transform="translate(505.638671875, 116)"><g id="ic_fish_1cu9ldnz0rjep-stroke" fill="none" stroke-linecap="round" stroke-linejoin="round" stroke-miterlimit="4" stroke="#2c2c2c" stroke-width="2"><g><path d="M 45.25 45.0835C 41.4925 45.864998 39.16 42.114998 39.16 42.114998L 39.16 42.114998C 37.979492 43.987511 35.939941 45.144684 33.727001 45.197502C 31.530602 45.091961 29.515541 43.947418 28.299999 42.114998L 28.299999 42.114998C 27.121227 43.987843 25.082312 45.145294 22.870001 45.197502C 20.671503 45.095039 18.653776 43.949936 17.438499 42.114998L 17.438499 42.114998C 17.438499 42.114998 14.4385 45.926498 10.756 45.145M 21.25 31.75L 45.25 31.75M 24.25 31.75L 24.25 42.25M 30.25 31.75L 30.25 40M 42.25 31.75L 42.25 41.5M 36.25 31.75L 36.25 41.5M 33.25 31.75L 33.25 22.75C 33.25 20.264719 35.264717 18.25 37.75 18.25C 40.235283 18.25 42.25 20.264719 42.25 22.75L 42.25 31.75M 37.75 18.25L 37.75 15.25M 37.75 12.25C 38.189163 11.393677 39.040638 10.826025 40 10.75C 41.5 10.75 41.5 12.25 43 12.25C 43.959358 12.173975 44.810837 11.606323 45.25 10.75M 13.75 40.75L 13.75 11.5M 24.25 31.75L 13.75 11.5L 30.25 31.75"></path></g></g></g><g id="g-root-tx_portsser_zlxgfvz0szk0-stroke" data-item-order="0" transform="translate(565.6396484375, 122)"></g><g id="g-root-tx_corelogi_dfgewrz0syru-stroke" data-item-order="0" transform="translate(85.6396484375, 170)"></g><g id="g-root-ic_data_mgpoxnz0lwxy-stroke" data-item-order="0" transform="translate(217.6396484375, 164)"><g id="ic_data_mgpoxnz0lwxy-stroke" fill="none" stroke-linecap="round" stroke-linejoin="round" stroke-miterlimit="4" stroke="#2c2c2c" stroke-width="2"><g><path d="M 31.344851 32.960651C 31.344851 33.915852 30.708099 34.552448 29.75305 34.552448L 24.181841 34.552448C 23.226776 34.552448 22.590054 33.915852 22.590054 32.960651L 22.590054 27.3895C 22.590054 26.43445 23.226776 25.797701 24.181841 25.797701L 29.75305 25.797701C 30.708099 25.797701 31.344851 26.43445 31.344851 27.3895L 31.344851 32.960651ZM 44.875 32.960651C 44.875 33.915852 44.238251 34.552448 43.283203 34.552448L 37.711899 34.552448C 36.756851 34.552448 36.120251 33.915852 36.120251 32.960651L 36.120251 27.3895C 36.120251 26.43445 36.756851 25.797701 37.711899 25.797701L 43.283203 25.797701C 44.238251 25.797701 44.875 26.43445 44.875 27.3895L 44.875 32.960651ZM 31.344851 30.095501L 36.120251 30.095501M 21.625 21.700119C 27.424 21.700119 32.125 19.819706 32.125 17.50012C 32.125 15.18052 27.424 13.300105 21.625 13.300105C 15.826015 13.300105 11.125 15.18052 11.125 17.50012C 11.125 19.819706 15.826015 21.700119 21.625 21.700119ZM 32.125 21.700285L 32.125 17.500269C 32.125 19.750269 27.474998 21.700285 21.625 21.700285C 15.775 21.700285 11.125 19.750269 11.125 17.500269L 11.125 24.700285M 18.775015 28.750301C 14.425015 28.300301 11.125 26.650299 11.125 24.700254L 11.125 31.6003C 11.125 33.550301 14.275015 35.200298 18.775015 35.650299M 11.125 31.599998L 11.125 38.5C 11.125 40.75 15.775 42.699997 21.625 42.699997C 27.474998 42.699997 32.125 40.75 32.125 38.5"></path></g></g></g><g id="g-root-tx_interfac_18hkgorz0sxzj-stroke" data-item-order="0" transform="translate(566, 158.5)"></g><g id="g-root-tx_centralb_qqwxa3z0sx6x-stroke" data-item-order="0" transform="translate(14, 206.5)"></g><g id="g-root-ic_link_1ly0rqzz0rifg-stroke" data-item-order="0" transform="translate(505.6396484375, 212)"><g id="ic_link_1ly0rqzz0rifg-stroke" fill="none" stroke-linecap="round" stroke-linejoin="round" stroke-miterlimit="4" stroke="#2c2c2c" stroke-width="2"><g><path d="M 40.181499 38.322998L 43.362999 35.141499C 44.535286 33.970184 44.535851 32.070251 43.364254 30.898243C 42.192661 29.726234 40.292725 29.726126 39.120998 30.897999L 35.939499 34.081001M 33.817001 36.202L 30.637001 39.383499C 29.464777 40.554897 29.464106 42.454777 30.635502 43.627003C 31.806896 44.799225 33.706779 44.799896 34.879002 43.628502L 38.060501 40.449997M 39.652 34.612L 34.348 39.914501M 13 17.764L 43 17.764M 17.5 14.389L 17.5 14.389M 17.5 14.389C 17.292892 14.389 17.125 14.556893 17.125 14.764C 17.125 14.971107 17.292892 15.139 17.5 15.139C 17.707108 15.139 17.875 14.971107 17.875 14.764C 17.875 14.556893 17.707108 14.389 17.5 14.389M 20.5 14.389L 20.5 14.389M 20.5 14.389C 20.292892 14.389 20.125 14.556893 20.125 14.764C 20.125 14.971107 20.292892 15.139 20.5 15.139C 20.707108 15.139 20.875 14.971107 20.875 14.764C 20.875 14.556893 20.707108 14.389 20.5 14.389M 23.5 14.389L 23.5 14.389M 23.5 14.389C 23.292892 14.389 23.125 14.556893 23.125 14.764C 23.125 14.971107 23.292892 15.139 23.5 15.139C 23.707108 15.139 23.875 14.971107 23.875 14.764C 23.875 14.556893 23.707108 14.389 23.5 14.389M 25 35.764L 16 35.764C 14.343145 35.764 13 34.420853 13 32.764L 13 14.764C 13 13.107145 14.343145 11.764 16 11.764L 40 11.764C 41.656857 11.764 43 13.107145 43 14.764L 43 23.764"></path></g></g></g><g id="g-root-tx_adapters_1lsehyzz0szke-stroke" data-item-order="0" transform="translate(565.6396484375, 218)"></g><g id="g-root-tx_connecto_8ydym3z0sxdx-stroke" data-item-order="0" transform="translate(566, 254.5)"></g></g></g><path id="wdgpmkrwisemk" d="M65.283 12.757a.35.35 0 0 0 .584.157l5.203-5.141-6.183 3.523.396 1.461zm-2.216-11.7a.35.35 0 0 0-.522.305v3.111l3.276-1.868-2.754-1.548zm3.728 2.105l-4.25 2.421v2.445l6.391-3.644-2.141-1.222zm4.708 3.303a.35.35 0 0 0 0-.609l-1.592-.9-7.365 4.199v1.782a.35.35 0 0 0 .523.305l8.435-4.777z M44.542 2.513c0-.433.355-.783.792-.783s.792.35.792.783-.355.783-.792.783-.792-.35-.792-.783zm59.171 0c0-.433.355-.783.792-.783s.792.35.792.783-.355.783-.792.783-.792-.35-.792-.783zm-85.951 7.636h-1.27v-.487c-.276.201-.864.609-1.881.609-1.202 0-2.274-.794-2.137-2.078.118-1.106 1.153-1.584 1.848-1.727l2.17-.345c0-.539-.29-.956-1.064-1.006s-1.21.305-1.571 1.017l-1.124-.605c1.218-2.631 5.029-1.764 5.029.414v4.207zm-1.27-2.86c.006.396-.062 1.112-.819 1.59-.587.37-1.841.299-1.903-.395-.049-.555.461-.791.906-.898l1.816-.297zm72.662 2.86h-1.27v-.487c-.276.201-.864.609-1.881.609-1.202 0-2.274-.794-2.137-2.078.118-1.106 1.153-1.584 1.848-1.727l2.17-.345c0-.539-.29-.956-1.064-1.006s-1.21.305-1.571 1.017l-1.124-.605c1.218-2.631 5.029-1.764 5.029.414v4.207zm-1.27-2.86c.006.396-.062 1.112-.82 1.59-.587.37-1.841.299-1.903-.395-.049-.555.461-.791.906-.898l1.816-.297zM99.096 10.149H97.85v-8.45h1.246v4.895l2.68-2.559h1.738l-2.633 2.535 2.715 3.578h-1.556l-2.077-2.707-.867.844v1.863zm6.053-6.114h-1.255v6.113h1.255V4.035zm-59.2 0h-1.255v6.113h1.255V4.035zm5.584 6.113V1.697h1.255v2.695c.361-.346 1-.485 1.47-.485 1.452 0 2.477 1.082 2.457 2.448v3.792h-1.27v-3.68c0-.408-.214-1.339-1.315-1.339-.968 0-1.342.756-1.342 1.339v3.681h-1.255zm-4.76-4.894V4.039h.621a.45.45 0 0 0 .45-.45v-.855h1.251v1.305h1.309v1.215h-1.309v3.109c0 .293.105.664.648.664.365 0 .531-.035.736-.07v1.137s-.361.113-.857.113c-1.398 0-1.777-1.051-1.777-1.788V5.254h-1.071zM36.528 4.039h-1.394l2.191 6.106h1.125l1.234-3.918 1.238 3.918h1.129l2.188-6.106h-1.383l-1.359 3.93-1.256-3.93h-1.124l-1.242 3.957-1.348-3.957zM26.212 7.141c-.02 1.566 1.187 3.129 3.223 3.129 1.566 0 2.383-.918 2.734-1.719L31.172 8c-.315.399-.801 1.094-1.738 1.094-1.145 0-1.825-.781-1.891-1.52h4.625c.074-.284.148-.995-.03-1.559-.336-1.064-1.221-2.102-2.839-2.102s-3.088 1.152-3.088 3.227zm1.363-.75h3.348c-.055-.43-.566-1.301-1.623-1.301a1.79 1.79 0 0 0-1.725 1.301zm-8.758.75c.038 1.758 1.277 3.133 3.145 3.133 1.074 0 1.723-.477 1.961-.672v.547h1.242V1.703h-1.258v2.888c-.414-.36-1.062-.68-1.93-.68-1.91 0-3.198 1.473-3.16 3.23zm1.309-.08c0 1.119.723 1.978 1.836 1.978a1.88 1.88 0 0 0 1.94-1.904c0-1.371-1.011-1.99-1.972-1.99s-1.805.798-1.805 1.916zm76.683-.028C96.771 5.275 95.532 3.9 93.664 3.9c-1.074 0-1.723.477-1.961.672v-.547h-1.242v8.22h1.258V9.583c.414.36 1.063.68 1.93.68 1.91 0 3.198-1.473 3.16-3.23zm-1.309.08c0-1.119-.723-1.978-1.836-1.978a1.88 1.88 0 0 0-1.94 1.904c0 1.371 1.011 1.99 1.972 1.99S95.5 8.231 95.5 7.113zM106.441 10.173V4.036h1.254v.382c.361-.346 1-.485 1.47-.485 1.452 0 2.477 1.082 2.457 2.448v3.792h-1.27V6.492c0-.408-.214-1.339-1.315-1.339-.969 0-1.342.756-1.342 1.339v3.681h-1.254zm-30.383-.021V1.824h1.084l4.215 5.777V1.824h1.32v8.328h-1.094l-4.207-5.796v5.796h-1.319zM5.24 10.149H4V2.377h1.014l2.664 3.597 2.654-3.592h1.03v7.766h-1.256V4.762L7.678 8.068 5.24 4.742v5.407z" transform="translate(20, 324.5)" fill="#ababab88" stroke="none"></path></svg>